<?xml version="1.0" encoding="UTF-8" standalone="no"?>
<!-- Created with Inkscape (http://www.inkscape.org/) -->

<svg
   xmlns:dc="http://purl.org/dc/elements/1.1/"
   xmlns:cc="http://creativecommons.org/ns#"
   xmlns:rdf="http://www.w3.org/1999/02/22-rdf-syntax-ns#"
   xmlns:svg="http://www.w3.org/2000/svg"
   xmlns="http://www.w3.org/2000/svg"
   xmlns:sodipodi="http://sodipodi.sourceforge.net/DTD/sodipodi-0.dtd"
   xmlns:inkscape="http://www.inkscape.org/namespaces/inkscape"
   width="446.85114"
   height="211.4751"
   viewBox="0 0 118.22936 55.952786"
   version="1.1"
   id="svg5116"
   inkscape:version="0.92.1 r15371"
   sodipodi:docname="ntls_diagram.svg"
   inkscape:export-filename="W:\k7_docs\flare\Content\Resources\Images\overview\New SVGs\ntls_diagram.png"
   inkscape:export-xdpi="98.669701"
   inkscape:export-ydpi="98.669701">
  <defs
     id="defs5110">
    <marker
       inkscape:isstock="true"
       style="overflow:visible"
       id="marker5483"
       refX="0"
       refY="0"
       orient="auto"
       inkscape:stockid="Arrow1Mstart">
      <path
         transform="matrix(0.4,0,0,0.4,4,0)"
         style="fill:#000000;fill-opacity:1;fill-rule:evenodd;stroke:#000000;stroke-width:1.00000003pt;stroke-opacity:1"
         d="M 0,0 5,-5 -12.5,0 5,5 Z"
         id="path5481"
         inkscape:connector-curvature="0" />
    </marker>
    <marker
       inkscape:stockid="Arrow1Mstart"
       orient="auto"
       refY="0"
       refX="0"
       id="marker5419"
       style="overflow:visible"
       inkscape:isstock="true"
       inkscape:collect="always">
      <path
         id="path5417"
         d="M 0,0 5,-5 -12.5,0 5,5 Z"
         style="fill:#000000;fill-opacity:1;fill-rule:evenodd;stroke:#000000;stroke-width:1.00000003pt;stroke-opacity:1"
         transform="matrix(0.4,0,0,0.4,4,0)"
         inkscape:connector-curvature="0" />
    </marker>
    <marker
       inkscape:isstock="true"
       style="overflow:visible"
       id="marker5092"
       refX="0"
       refY="0"
       orient="auto"
       inkscape:stockid="Arrow1Mstart">
      <path
         transform="matrix(0.4,0,0,0.4,4,0)"
         style="fill:#000000;fill-opacity:1;fill-rule:evenodd;stroke:#000000;stroke-width:1.00000003pt;stroke-opacity:1"
         d="M 0,0 5,-5 -12.5,0 5,5 Z"
         id="path5090"
         inkscape:connector-curvature="0" />
    </marker>
    <marker
       inkscape:stockid="Arrow1Mstart"
       orient="auto"
       refY="0"
       refX="0"
       id="marker5052"
       style="overflow:visible"
       inkscape:isstock="true">
      <path
         id="path5050"
         d="M 0,0 5,-5 -12.5,0 5,5 Z"
         style="fill:#000000;fill-opacity:1;fill-rule:evenodd;stroke:#000000;stroke-width:1.00000003pt;stroke-opacity:1"
         transform="matrix(0.4,0,0,0.4,4,0)"
         inkscape:connector-curvature="0" />
    </marker>
    <marker
       inkscape:isstock="true"
       style="overflow:visible"
       id="marker5024"
       refX="0"
       refY="0"
       orient="auto"
       inkscape:stockid="Arrow1Mstart"
       inkscape:collect="always">
      <path
         transform="matrix(0.4,0,0,0.4,4,0)"
         style="fill:#000000;fill-opacity:1;fill-rule:evenodd;stroke:#000000;stroke-width:1.00000003pt;stroke-opacity:1"
         d="M 0,0 5,-5 -12.5,0 5,5 Z"
         id="path5022"
         inkscape:connector-curvature="0" />
    </marker>
    <marker
       inkscape:stockid="Arrow1Mstart"
       orient="auto"
       refY="0"
       refX="0"
       id="Arrow1Mstart"
       style="overflow:visible"
       inkscape:isstock="true"
       inkscape:collect="always">
      <path
         id="path4740"
         d="M 0,0 5,-5 -12.5,0 5,5 Z"
         style="fill:#000000;fill-opacity:1;fill-rule:evenodd;stroke:#000000;stroke-width:1.00000003pt;stroke-opacity:1"
         transform="matrix(0.4,0,0,0.4,4,0)"
         inkscape:connector-curvature="0" />
    </marker>
    <pattern
       y="0"
       x="0"
       height="6"
       width="6"
       patternUnits="userSpaceOnUse"
       id="EMFhbasepattern" />
  </defs>
  <sodipodi:namedview
     id="base"
     pagecolor="#ffffff"
     bordercolor="#666666"
     borderopacity="1.0"
     inkscape:pageopacity="0.0"
     inkscape:pageshadow="2"
     inkscape:zoom="2.8"
     inkscape:cx="211.11651"
     inkscape:cy="86.145105"
     inkscape:document-units="mm"
     inkscape:current-layer="g5136"
     showgrid="false"
     units="px"
     inkscape:window-width="1920"
     inkscape:window-height="1005"
     inkscape:window-x="-9"
     inkscape:window-y="-9"
     inkscape:window-maximized="1"
     inkscape:snap-midpoints="true"
     fit-margin-top="0"
     fit-margin-left="0"
     fit-margin-right="0"
     fit-margin-bottom="0" />
  <metadata
     id="metadata5113">
    <rdf:RDF>
      <cc:Work
         rdf:about="">
        <dc:format>image/svg+xml</dc:format>
        <dc:type
           rdf:resource="http://purl.org/dc/dcmitype/StillImage" />
        <dc:title />
      </cc:Work>
    </rdf:RDF>
  </metadata>
  <g
     inkscape:label="Layer 1"
     inkscape:groupmode="layer"
     id="layer1"
     transform="translate(-16.874253,-143.16347)">
    <rect
       style="opacity:1;fill:#f2f2f2;fill-opacity:1;stroke:#969696;stroke-width:0.23183727;stroke-miterlimit:4;stroke-dasharray:0.92734914, 0.23183728;stroke-dashoffset:0;stroke-opacity:1"
       id="rect4550"
       width="46.285145"
       height="34.380379"
       x="16.996052"
       y="164.61996"
       ry="0.43742883"
       rx="0.43742883" />
    <g
       transform="matrix(0.87485767,0,0,0.87485767,356.64783,92.407917)"
       id="g5031">
      <rect
         y="77.780037"
         x="-388.2366"
         height="5.2905917"
         width="52.905918"
         id="rect4755"
         style="opacity:1;fill:#b3b3b3;fill-opacity:1;fill-rule:nonzero;stroke:none;stroke-width:0.02595618;stroke-linecap:round;stroke-linejoin:round;stroke-miterlimit:4;stroke-dasharray:none;stroke-dashoffset:0;stroke-opacity:1;paint-order:markers fill stroke" />
      <path
         id="rect4755-8"
         d="m -378.17003,74.80451 -10.06657,2.97553 h 26.05061 0.8046 26.05061 l -10.06657,-2.97553 h -5.91747 -20.93774 z"
         style="opacity:1;fill:#999999;fill-opacity:1;fill-rule:nonzero;stroke:none;stroke-width:0.01386901;stroke-linecap:round;stroke-linejoin:round;stroke-miterlimit:4;stroke-dasharray:none;stroke-dashoffset:0;stroke-opacity:1;paint-order:markers fill stroke"
         inkscape:connector-curvature="0" />
      <rect
         ry="0.12862346"
         y="78.938866"
         x="-384.82382"
         height="2.9131546"
         width="6.095932"
         id="rect4807"
         style="opacity:1;fill:#d9d9d9;fill-opacity:1;fill-rule:nonzero;stroke:none;stroke-width:0.02135563;stroke-linecap:round;stroke-linejoin:round;stroke-miterlimit:4;stroke-dasharray:none;stroke-dashoffset:0;stroke-opacity:1;paint-order:markers fill stroke" />
      <rect
         ry="0.13229166"
         y="78.742867"
         x="-369.8421"
         height="1.4894142"
         width="3.102946"
         id="rect4811"
         style="opacity:1;fill:#999999;fill-opacity:1;fill-rule:nonzero;stroke:none;stroke-width:0.02537535;stroke-linecap:round;stroke-linejoin:round;stroke-miterlimit:4;stroke-dasharray:none;stroke-dashoffset:0;stroke-opacity:1;paint-order:markers fill stroke" />
      <path
         id="path4815"
         d="m -369.12872,79.11311 v 10e-4 a 0.26120409,0.37613388 0 0 0 -0.25838,0.37621 0.26120409,0.37613388 0 0 0 0.25838,0.3762 v 0.002 h 1.71049 v -0.003 a 0.26120409,0.37613388 0 0 0 0.25528,-0.37569 0.26120409,0.37613388 0 0 0 -0.25528,-0.37517 v -0.002 z"
         style="opacity:1;fill:#d9d9d9;fill-opacity:1;fill-rule:nonzero;stroke:none;stroke-width:0.03516111;stroke-linecap:round;stroke-linejoin:round;stroke-miterlimit:4;stroke-dasharray:none;stroke-dashoffset:0;stroke-opacity:1;paint-order:markers fill stroke"
         inkscape:connector-curvature="0" />
      <g
         transform="matrix(0.12497461,0,0,0.12497461,-330.80243,52.01788)"
         id="g5993">
        <circle
           style="opacity:1;fill:#d9d9d9;fill-opacity:1;fill-rule:nonzero;stroke:none;stroke-width:0.16959998;stroke-linecap:round;stroke-linejoin:round;stroke-miterlimit:4;stroke-dasharray:none;stroke-dashoffset:0;stroke-opacity:1;paint-order:markers fill stroke"
           id="path5881"
           cx="-284.55698"
           cy="239.50844"
           r="1.5119047" />
        <circle
           style="opacity:1;fill:#d9d9d9;fill-opacity:1;fill-rule:nonzero;stroke:none;stroke-width:0.16959998;stroke-linecap:round;stroke-linejoin:round;stroke-miterlimit:4;stroke-dasharray:none;stroke-dashoffset:0;stroke-opacity:1;paint-order:markers fill stroke"
           id="path5881-9"
           cx="-278.54871"
           cy="239.50478"
           r="1.5119047" />
        <circle
           style="opacity:1;fill:#d9d9d9;fill-opacity:1;fill-rule:nonzero;stroke:none;stroke-width:0.16959998;stroke-linecap:round;stroke-linejoin:round;stroke-miterlimit:4;stroke-dasharray:none;stroke-dashoffset:0;stroke-opacity:1;paint-order:markers fill stroke"
           id="path5881-9-0"
           cx="-272.55377"
           cy="239.50182"
           r="1.5119047" />
      </g>
      <rect
         ry="0.049610391"
         y="81.719078"
         x="-370.29581"
         height="0.5101642"
         width="1.2943053"
         id="rect5941"
         style="opacity:1;fill:#999999;fill-opacity:1;fill-rule:nonzero;stroke:none;stroke-width:0.02649461;stroke-linecap:round;stroke-linejoin:round;stroke-miterlimit:4;stroke-dasharray:none;stroke-dashoffset:0;stroke-opacity:1;paint-order:markers fill stroke" />
      <rect
         ry="0.06614583"
         y="81.719078"
         x="-372.19855"
         height="0.5101642"
         width="1.2943053"
         id="rect5941-7"
         style="opacity:1;fill:#999999;fill-opacity:1;fill-rule:nonzero;stroke:none;stroke-width:0.02649461;stroke-linecap:round;stroke-linejoin:round;stroke-miterlimit:4;stroke-dasharray:none;stroke-dashoffset:0;stroke-opacity:1;paint-order:markers fill stroke" />
      <path
         sodipodi:nodetypes="ccccccccccc"
         inkscape:connector-curvature="0"
         id="path5958"
         d="m -341.6643,77.83173 0.001,1.25133 h 1.83711 l 0.12018,0.14136 v 2.38992 l -0.13524,0.1156 -1.82205,0.003 v 1.27062 l -21.24888,-5.4e-4 -0.001,-5.18098 z"
         style="fill:none;fill-rule:evenodd;stroke:#999999;stroke-width:0.132;stroke-linecap:butt;stroke-linejoin:miter;stroke-miterlimit:4;stroke-dasharray:none;stroke-opacity:1" />
      <path
         inkscape:transform-center-y="-2.803974e-006"
         inkscape:transform-center-x="-5.5423702e-006"
         d="m -386.42409,80.567597 -0.34288,0.197961 -0.34288,-0.197961 0,-0.395921 0.34288,-0.197961 0.34288,0.197961 z"
         inkscape:randomized="0"
         inkscape:rounded="0"
         inkscape:flatsided="true"
         sodipodi:arg2="1.0471976"
         sodipodi:arg1="0.52359878"
         sodipodi:r2="0.34287834"
         sodipodi:r1="0.39592177"
         sodipodi:cy="80.369637"
         sodipodi:cx="-386.76697"
         sodipodi:sides="6"
         id="path5969"
         style="opacity:1;fill:#d9d9d9;fill-opacity:1;fill-rule:nonzero;stroke:none;stroke-width:0.13226479;stroke-linecap:round;stroke-linejoin:round;stroke-miterlimit:4;stroke-dasharray:none;stroke-dashoffset:0;stroke-opacity:1;paint-order:markers fill stroke"
         sodipodi:type="star" />
      <path
         inkscape:transform-center-y="-2.803974e-006"
         inkscape:transform-center-x="-5.5423702e-006"
         d="m -336.46492,80.580384 -0.34288,0.197961 -0.34288,-0.197961 0,-0.395921 0.34288,-0.197961 0.34288,0.197961 z"
         inkscape:randomized="0"
         inkscape:rounded="0"
         inkscape:flatsided="true"
         sodipodi:arg2="1.0471976"
         sodipodi:arg1="0.52359878"
         sodipodi:r2="0.34287834"
         sodipodi:r1="0.39592177"
         sodipodi:cy="80.382423"
         sodipodi:cx="-336.8078"
         sodipodi:sides="6"
         id="path5969-0"
         style="opacity:1;fill:#d9d9d9;fill-opacity:1;fill-rule:nonzero;stroke:none;stroke-width:0.13226479;stroke-linecap:round;stroke-linejoin:round;stroke-miterlimit:4;stroke-dasharray:none;stroke-dashoffset:0;stroke-opacity:1;paint-order:markers fill stroke"
         sodipodi:type="star" />
      <g
         transform="translate(-129.01867,-120.02787)"
         id="g4845">
        <circle
           style="opacity:1;fill:#999999;fill-opacity:1;fill-rule:nonzero;stroke:none;stroke-width:0.02732104;stroke-linecap:round;stroke-linejoin:round;stroke-miterlimit:4;stroke-dasharray:none;stroke-dashoffset:0;stroke-opacity:1;paint-order:markers fill stroke"
           id="path5708"
           cx="-213.63127"
           cy="200.44157"
           r="0.66091108" />
        <g
           id="g10620"
           transform="translate(4.8470114,-7.0634833)">
          <rect
             y="205.49057"
             x="-237.29413"
             height="1.2107893"
             width="1.2107893"
             id="rect4873-7-66"
             style="opacity:1;fill:#999999;fill-opacity:1;fill-rule:nonzero;stroke:none;stroke-width:0.05659247;stroke-linecap:round;stroke-linejoin:round;stroke-miterlimit:4;stroke-dasharray:none;stroke-dashoffset:0;stroke-opacity:1;paint-order:markers fill stroke" />
          <rect
             y="206.89182"
             x="-237.29413"
             height="1.2107893"
             width="1.2107893"
             id="rect4873-7-66-2"
             style="opacity:1;fill:#999999;fill-opacity:1;fill-rule:nonzero;stroke:none;stroke-width:0.05659247;stroke-linecap:round;stroke-linejoin:round;stroke-miterlimit:4;stroke-dasharray:none;stroke-dashoffset:0;stroke-opacity:1;paint-order:markers fill stroke" />
          <rect
             y="208.29306"
             x="-237.29413"
             height="1.2107893"
             width="1.2107893"
             id="rect4873-7-66-7"
             style="opacity:1;fill:#999999;fill-opacity:1;fill-rule:nonzero;stroke:none;stroke-width:0.05659247;stroke-linecap:round;stroke-linejoin:round;stroke-miterlimit:4;stroke-dasharray:none;stroke-dashoffset:0;stroke-opacity:1;paint-order:markers fill stroke" />
          <rect
             y="205.49057"
             x="-235.89288"
             height="1.2107893"
             width="1.2107893"
             id="rect4873-7-66-8"
             style="opacity:1;fill:#999999;fill-opacity:1;fill-rule:nonzero;stroke:none;stroke-width:0.05659247;stroke-linecap:round;stroke-linejoin:round;stroke-miterlimit:4;stroke-dasharray:none;stroke-dashoffset:0;stroke-opacity:1;paint-order:markers fill stroke" />
          <rect
             y="206.89182"
             x="-235.89288"
             height="1.2107893"
             width="1.2107893"
             id="rect4873-7-66-2-9"
             style="opacity:1;fill:#999999;fill-opacity:1;fill-rule:nonzero;stroke:none;stroke-width:0.05659247;stroke-linecap:round;stroke-linejoin:round;stroke-miterlimit:4;stroke-dasharray:none;stroke-dashoffset:0;stroke-opacity:1;paint-order:markers fill stroke" />
          <rect
             y="208.29306"
             x="-235.89288"
             height="1.2107893"
             width="1.2107893"
             id="rect4873-7-66-7-3"
             style="opacity:1;fill:#999999;fill-opacity:1;fill-rule:nonzero;stroke:none;stroke-width:0.05659247;stroke-linecap:round;stroke-linejoin:round;stroke-miterlimit:4;stroke-dasharray:none;stroke-dashoffset:0;stroke-opacity:1;paint-order:markers fill stroke" />
          <rect
             y="205.49057"
             x="-234.49164"
             height="1.2107893"
             width="1.2107893"
             id="rect4873-7-66-0"
             style="opacity:1;fill:#999999;fill-opacity:1;fill-rule:nonzero;stroke:none;stroke-width:0.05659247;stroke-linecap:round;stroke-linejoin:round;stroke-miterlimit:4;stroke-dasharray:none;stroke-dashoffset:0;stroke-opacity:1;paint-order:markers fill stroke" />
          <rect
             y="206.89182"
             x="-234.49164"
             height="1.2107893"
             width="1.2107893"
             id="rect4873-7-66-2-1"
             style="opacity:1;fill:#999999;fill-opacity:1;fill-rule:nonzero;stroke:none;stroke-width:0.05659247;stroke-linecap:round;stroke-linejoin:round;stroke-miterlimit:4;stroke-dasharray:none;stroke-dashoffset:0;stroke-opacity:1;paint-order:markers fill stroke" />
          <rect
             y="208.29306"
             x="-234.49164"
             height="1.2107893"
             width="1.2107893"
             id="rect4873-7-66-7-8"
             style="opacity:1;fill:#999999;fill-opacity:1;fill-rule:nonzero;stroke:none;stroke-width:0.05659247;stroke-linecap:round;stroke-linejoin:round;stroke-miterlimit:4;stroke-dasharray:none;stroke-dashoffset:0;stroke-opacity:1;paint-order:markers fill stroke" />
          <rect
             y="205.49057"
             x="-233.09039"
             height="1.2107893"
             width="1.2107893"
             id="rect4873-7-66-8-7"
             style="opacity:1;fill:#999999;fill-opacity:1;fill-rule:nonzero;stroke:none;stroke-width:0.05659247;stroke-linecap:round;stroke-linejoin:round;stroke-miterlimit:4;stroke-dasharray:none;stroke-dashoffset:0;stroke-opacity:1;paint-order:markers fill stroke" />
          <rect
             y="206.89182"
             x="-233.09039"
             height="1.2107893"
             width="1.2107893"
             id="rect4873-7-66-2-9-1"
             style="opacity:1;fill:#999999;fill-opacity:1;fill-rule:nonzero;stroke:none;stroke-width:0.05659247;stroke-linecap:round;stroke-linejoin:round;stroke-miterlimit:4;stroke-dasharray:none;stroke-dashoffset:0;stroke-opacity:1;paint-order:markers fill stroke" />
          <rect
             y="208.29306"
             x="-233.09039"
             height="1.2107893"
             width="1.2107893"
             id="rect4873-7-66-7-3-0"
             style="opacity:1;fill:#999999;fill-opacity:1;fill-rule:nonzero;stroke:none;stroke-width:0.05659247;stroke-linecap:round;stroke-linejoin:round;stroke-miterlimit:4;stroke-dasharray:none;stroke-dashoffset:0;stroke-opacity:1;paint-order:markers fill stroke" />
          <rect
             y="205.49057"
             x="-231.68915"
             height="1.2107893"
             width="1.2107893"
             id="rect4873-7-66-00"
             style="opacity:1;fill:#999999;fill-opacity:1;fill-rule:nonzero;stroke:none;stroke-width:0.05659247;stroke-linecap:round;stroke-linejoin:round;stroke-miterlimit:4;stroke-dasharray:none;stroke-dashoffset:0;stroke-opacity:1;paint-order:markers fill stroke" />
          <rect
             y="206.89182"
             x="-231.68915"
             height="1.2107893"
             width="1.2107893"
             id="rect4873-7-66-2-0"
             style="opacity:1;fill:#999999;fill-opacity:1;fill-rule:nonzero;stroke:none;stroke-width:0.05659247;stroke-linecap:round;stroke-linejoin:round;stroke-miterlimit:4;stroke-dasharray:none;stroke-dashoffset:0;stroke-opacity:1;paint-order:markers fill stroke" />
          <rect
             y="208.29306"
             x="-231.68915"
             height="1.2107893"
             width="1.2107893"
             id="rect4873-7-66-7-0"
             style="opacity:1;fill:#999999;fill-opacity:1;fill-rule:nonzero;stroke:none;stroke-width:0.05659247;stroke-linecap:round;stroke-linejoin:round;stroke-miterlimit:4;stroke-dasharray:none;stroke-dashoffset:0;stroke-opacity:1;paint-order:markers fill stroke" />
          <rect
             y="205.49057"
             x="-230.2879"
             height="1.2107893"
             width="1.2107893"
             id="rect4873-7-66-8-1"
             style="opacity:1;fill:#999999;fill-opacity:1;fill-rule:nonzero;stroke:none;stroke-width:0.05659247;stroke-linecap:round;stroke-linejoin:round;stroke-miterlimit:4;stroke-dasharray:none;stroke-dashoffset:0;stroke-opacity:1;paint-order:markers fill stroke" />
          <rect
             y="206.89182"
             x="-230.2879"
             height="1.2107893"
             width="1.2107893"
             id="rect4873-7-66-2-9-8"
             style="opacity:1;fill:#999999;fill-opacity:1;fill-rule:nonzero;stroke:none;stroke-width:0.05659247;stroke-linecap:round;stroke-linejoin:round;stroke-miterlimit:4;stroke-dasharray:none;stroke-dashoffset:0;stroke-opacity:1;paint-order:markers fill stroke" />
          <rect
             y="208.29306"
             x="-230.2879"
             height="1.2107893"
             width="1.2107893"
             id="rect4873-7-66-7-3-6"
             style="opacity:1;fill:#999999;fill-opacity:1;fill-rule:nonzero;stroke:none;stroke-width:0.05659247;stroke-linecap:round;stroke-linejoin:round;stroke-miterlimit:4;stroke-dasharray:none;stroke-dashoffset:0;stroke-opacity:1;paint-order:markers fill stroke" />
          <rect
             y="205.49057"
             x="-228.88666"
             height="1.2107893"
             width="1.2107893"
             id="rect4873-7-66-0-4"
             style="opacity:1;fill:#999999;fill-opacity:1;fill-rule:nonzero;stroke:none;stroke-width:0.05659247;stroke-linecap:round;stroke-linejoin:round;stroke-miterlimit:4;stroke-dasharray:none;stroke-dashoffset:0;stroke-opacity:1;paint-order:markers fill stroke" />
          <rect
             y="206.89182"
             x="-228.88666"
             height="1.2107893"
             width="1.2107893"
             id="rect4873-7-66-2-1-8"
             style="opacity:1;fill:#999999;fill-opacity:1;fill-rule:nonzero;stroke:none;stroke-width:0.05659247;stroke-linecap:round;stroke-linejoin:round;stroke-miterlimit:4;stroke-dasharray:none;stroke-dashoffset:0;stroke-opacity:1;paint-order:markers fill stroke" />
          <rect
             y="208.29306"
             x="-228.88666"
             height="1.2107893"
             width="1.2107893"
             id="rect4873-7-66-7-8-4"
             style="opacity:1;fill:#999999;fill-opacity:1;fill-rule:nonzero;stroke:none;stroke-width:0.05659247;stroke-linecap:round;stroke-linejoin:round;stroke-miterlimit:4;stroke-dasharray:none;stroke-dashoffset:0;stroke-opacity:1;paint-order:markers fill stroke" />
          <rect
             y="205.49057"
             x="-227.48541"
             height="1.2107893"
             width="1.2107893"
             id="rect4873-7-66-8-7-1"
             style="opacity:1;fill:#999999;fill-opacity:1;fill-rule:nonzero;stroke:none;stroke-width:0.05659247;stroke-linecap:round;stroke-linejoin:round;stroke-miterlimit:4;stroke-dasharray:none;stroke-dashoffset:0;stroke-opacity:1;paint-order:markers fill stroke" />
          <rect
             y="206.89182"
             x="-227.48541"
             height="1.2107893"
             width="1.2107893"
             id="rect4873-7-66-2-9-1-0"
             style="opacity:1;fill:#999999;fill-opacity:1;fill-rule:nonzero;stroke:none;stroke-width:0.05659247;stroke-linecap:round;stroke-linejoin:round;stroke-miterlimit:4;stroke-dasharray:none;stroke-dashoffset:0;stroke-opacity:1;paint-order:markers fill stroke" />
          <rect
             y="208.29306"
             x="-227.48541"
             height="1.2107893"
             width="1.2107893"
             id="rect4873-7-66-7-3-0-2"
             style="opacity:1;fill:#999999;fill-opacity:1;fill-rule:nonzero;stroke:none;stroke-width:0.05659247;stroke-linecap:round;stroke-linejoin:round;stroke-miterlimit:4;stroke-dasharray:none;stroke-dashoffset:0;stroke-opacity:1;paint-order:markers fill stroke" />
          <rect
             y="205.49057"
             x="-226.08417"
             height="1.2107893"
             width="1.2107893"
             id="rect4873-7-66-4"
             style="opacity:1;fill:#999999;fill-opacity:1;fill-rule:nonzero;stroke:none;stroke-width:0.05659247;stroke-linecap:round;stroke-linejoin:round;stroke-miterlimit:4;stroke-dasharray:none;stroke-dashoffset:0;stroke-opacity:1;paint-order:markers fill stroke" />
          <rect
             y="206.89182"
             x="-226.08417"
             height="1.2107893"
             width="1.2107893"
             id="rect4873-7-66-2-5"
             style="opacity:1;fill:#999999;fill-opacity:1;fill-rule:nonzero;stroke:none;stroke-width:0.05659247;stroke-linecap:round;stroke-linejoin:round;stroke-miterlimit:4;stroke-dasharray:none;stroke-dashoffset:0;stroke-opacity:1;paint-order:markers fill stroke" />
          <rect
             y="208.29306"
             x="-226.08417"
             height="1.2107893"
             width="1.2107893"
             id="rect4873-7-66-7-2"
             style="opacity:1;fill:#999999;fill-opacity:1;fill-rule:nonzero;stroke:none;stroke-width:0.05659247;stroke-linecap:round;stroke-linejoin:round;stroke-miterlimit:4;stroke-dasharray:none;stroke-dashoffset:0;stroke-opacity:1;paint-order:markers fill stroke" />
          <rect
             y="205.49057"
             x="-224.68292"
             height="1.2107893"
             width="1.2107893"
             id="rect4873-7-66-8-6"
             style="opacity:1;fill:#999999;fill-opacity:1;fill-rule:nonzero;stroke:none;stroke-width:0.05659247;stroke-linecap:round;stroke-linejoin:round;stroke-miterlimit:4;stroke-dasharray:none;stroke-dashoffset:0;stroke-opacity:1;paint-order:markers fill stroke" />
          <rect
             y="206.89182"
             x="-224.68292"
             height="1.2107893"
             width="1.2107893"
             id="rect4873-7-66-2-9-3"
             style="opacity:1;fill:#999999;fill-opacity:1;fill-rule:nonzero;stroke:none;stroke-width:0.05659247;stroke-linecap:round;stroke-linejoin:round;stroke-miterlimit:4;stroke-dasharray:none;stroke-dashoffset:0;stroke-opacity:1;paint-order:markers fill stroke" />
          <rect
             y="208.29306"
             x="-224.68292"
             height="1.2107893"
             width="1.2107893"
             id="rect4873-7-66-7-3-4"
             style="opacity:1;fill:#999999;fill-opacity:1;fill-rule:nonzero;stroke:none;stroke-width:0.05659247;stroke-linecap:round;stroke-linejoin:round;stroke-miterlimit:4;stroke-dasharray:none;stroke-dashoffset:0;stroke-opacity:1;paint-order:markers fill stroke" />
          <rect
             y="205.49057"
             x="-223.28168"
             height="1.2107893"
             width="1.2107893"
             id="rect4873-7-66-0-1"
             style="opacity:1;fill:#999999;fill-opacity:1;fill-rule:nonzero;stroke:none;stroke-width:0.05659247;stroke-linecap:round;stroke-linejoin:round;stroke-miterlimit:4;stroke-dasharray:none;stroke-dashoffset:0;stroke-opacity:1;paint-order:markers fill stroke" />
          <rect
             y="206.89182"
             x="-223.28168"
             height="1.2107893"
             width="1.2107893"
             id="rect4873-7-66-2-1-84"
             style="opacity:1;fill:#999999;fill-opacity:1;fill-rule:nonzero;stroke:none;stroke-width:0.05659247;stroke-linecap:round;stroke-linejoin:round;stroke-miterlimit:4;stroke-dasharray:none;stroke-dashoffset:0;stroke-opacity:1;paint-order:markers fill stroke" />
          <rect
             y="208.29306"
             x="-223.28168"
             height="1.2107893"
             width="1.2107893"
             id="rect4873-7-66-7-8-5"
             style="opacity:1;fill:#999999;fill-opacity:1;fill-rule:nonzero;stroke:none;stroke-width:0.05659247;stroke-linecap:round;stroke-linejoin:round;stroke-miterlimit:4;stroke-dasharray:none;stroke-dashoffset:0;stroke-opacity:1;paint-order:markers fill stroke" />
          <rect
             y="205.49057"
             x="-221.88043"
             height="1.2107893"
             width="1.2107893"
             id="rect4873-7-66-8-7-17"
             style="opacity:1;fill:#999999;fill-opacity:1;fill-rule:nonzero;stroke:none;stroke-width:0.05659247;stroke-linecap:round;stroke-linejoin:round;stroke-miterlimit:4;stroke-dasharray:none;stroke-dashoffset:0;stroke-opacity:1;paint-order:markers fill stroke" />
          <rect
             y="206.89182"
             x="-221.88043"
             height="1.2107893"
             width="1.2107893"
             id="rect4873-7-66-2-9-1-1"
             style="opacity:1;fill:#999999;fill-opacity:1;fill-rule:nonzero;stroke:none;stroke-width:0.05659247;stroke-linecap:round;stroke-linejoin:round;stroke-miterlimit:4;stroke-dasharray:none;stroke-dashoffset:0;stroke-opacity:1;paint-order:markers fill stroke" />
          <rect
             y="208.29306"
             x="-221.88043"
             height="1.2107893"
             width="1.2107893"
             id="rect4873-7-66-7-3-0-6"
             style="opacity:1;fill:#999999;fill-opacity:1;fill-rule:nonzero;stroke:none;stroke-width:0.05659247;stroke-linecap:round;stroke-linejoin:round;stroke-miterlimit:4;stroke-dasharray:none;stroke-dashoffset:0;stroke-opacity:1;paint-order:markers fill stroke" />
          <rect
             y="205.49057"
             x="-220.47919"
             height="1.2107893"
             width="1.2107893"
             id="rect4873-7-66-8-7-17-0"
             style="opacity:1;fill:#999999;fill-opacity:1;fill-rule:nonzero;stroke:none;stroke-width:0.05659247;stroke-linecap:round;stroke-linejoin:round;stroke-miterlimit:4;stroke-dasharray:none;stroke-dashoffset:0;stroke-opacity:1;paint-order:markers fill stroke" />
          <rect
             y="206.89182"
             x="-220.47919"
             height="1.2107893"
             width="1.2107893"
             id="rect4873-7-66-2-9-1-1-6"
             style="opacity:1;fill:#999999;fill-opacity:1;fill-rule:nonzero;stroke:none;stroke-width:0.05659247;stroke-linecap:round;stroke-linejoin:round;stroke-miterlimit:4;stroke-dasharray:none;stroke-dashoffset:0;stroke-opacity:1;paint-order:markers fill stroke" />
          <rect
             y="208.29306"
             x="-220.47919"
             height="1.2107893"
             width="1.2107893"
             id="rect4873-7-66-7-3-0-6-1"
             style="opacity:1;fill:#999999;fill-opacity:1;fill-rule:nonzero;stroke:none;stroke-width:0.05659247;stroke-linecap:round;stroke-linejoin:round;stroke-miterlimit:4;stroke-dasharray:none;stroke-dashoffset:0;stroke-opacity:1;paint-order:markers fill stroke" />
        </g>
      </g>
    </g>
    <rect
       style="opacity:1;fill:#e6e6e6;fill-opacity:1;stroke:#969696;stroke-width:0.23183727;stroke-miterlimit:4;stroke-dasharray:0.92734913, 0.23183728;stroke-dashoffset:0;stroke-opacity:1"
       id="rect4572"
       width="31.7999"
       height="28.409473"
       x="16.990171"
       y="170.58144"
       rx="0.43742794"
       ry="0.43742794" />
    <rect
       style="opacity:1;fill:#d9d9d9;fill-opacity:1;stroke:#969696;stroke-width:0.23233214;stroke-miterlimit:4;stroke-dasharray:0.92932855, 0.23233214;stroke-dashoffset:0;stroke-opacity:1"
       id="rect4574"
       width="27.47418"
       height="16.71833"
       x="21.315891"
       y="182.27258"
       rx="0.43929732"
       ry="0.43742794" />
    <text
       xml:space="preserve"
       style="font-style:normal;font-variant:normal;font-weight:normal;font-stretch:normal;font-size:3.52777767px;line-height:1.25;font-family:Arial;-inkscape-font-specification:'Arial, Normal';font-variant-ligatures:normal;font-variant-caps:normal;font-variant-numeric:normal;font-feature-settings:normal;text-align:start;letter-spacing:0px;word-spacing:0px;writing-mode:lr-tb;text-anchor:start;fill:#000000;fill-opacity:1;stroke:none;stroke-width:0.26458332"
       x="28.960129"
       y="175.13046"
       id="text4578"><tspan
         sodipodi:role="line"
         id="tspan4576"
         x="28.960129"
         y="175.13046"
         style="stroke-width:0.26458332">HSM</tspan></text>
    <text
       xml:space="preserve"
       style="font-style:normal;font-variant:normal;font-weight:normal;font-stretch:normal;font-size:3.52777767px;line-height:1.25;font-family:Arial;-inkscape-font-specification:'Arial, Normal';font-variant-ligatures:normal;font-variant-caps:normal;font-variant-numeric:normal;font-feature-settings:normal;text-align:start;letter-spacing:0px;word-spacing:0px;writing-mode:lr-tb;text-anchor:start;fill:#000000;fill-opacity:1;stroke:none;stroke-width:0.26458332"
       x="28.562422"
       y="187.97015"
       id="text4582"><tspan
         sodipodi:role="line"
         id="tspan4580"
         x="28.562422"
         y="187.97015"
         style="stroke-width:0.26458332">Partition</tspan></text>
    <rect
       style="opacity:1;fill:#f2f2f2;fill-opacity:1;stroke:#969696;stroke-width:0.23183727;stroke-miterlimit:4;stroke-dasharray:0.92734913, 0.23183728;stroke-dashoffset:0;stroke-opacity:1"
       id="rect4584"
       width="10.054379"
       height="5.9624815"
       x="53.115791"
       y="175.5025"
       rx="0.43742794"
       ry="0.43742794" />
    <text
       xml:space="preserve"
       style="font-style:normal;font-variant:normal;font-weight:normal;font-stretch:normal;font-size:3.52777767px;line-height:1.25;font-family:Arial;-inkscape-font-specification:'Arial, Normal';font-variant-ligatures:normal;font-variant-caps:normal;font-variant-numeric:normal;font-feature-settings:normal;text-align:start;letter-spacing:0px;word-spacing:0px;writing-mode:lr-tb;text-anchor:start;fill:#000000;fill-opacity:1;stroke:none;stroke-width:0.26458332"
       x="54.728893"
       y="179.73001"
       id="text4556"><tspan
         sodipodi:role="line"
         id="tspan4554"
         x="54.728893"
         y="179.73001"
         style="stroke-width:0.26458332">eth0</tspan></text>
    <path
       inkscape:connector-curvature="0"
       id="path4701"
       d="m 99.156998,178.54508 -13.545389,-1e-5"
       style="fill:none;stroke:#000000;stroke-width:0.26458332px;stroke-linecap:butt;stroke-linejoin:miter;stroke-opacity:1" />
    <path
       inkscape:connector-curvature="0"
       id="path4703"
       d="M 72.364532,178.48373 H 63.170171"
       style="fill:none;stroke:#000000;stroke-width:0.23147275px;stroke-linecap:butt;stroke-linejoin:miter;stroke-opacity:1" />
    <path
       inkscape:connector-curvature="0"
       id="path4705"
       d="m 48.790071,190.63174 h 9.296666"
       style="fill:none;stroke:#000000;stroke-width:0.23271215;stroke-linecap:butt;stroke-linejoin:miter;stroke-miterlimit:4;stroke-dasharray:none;stroke-opacity:1;marker-start:url(#marker5419)" />
    <path
       inkscape:connector-curvature="0"
       id="path4707"
       d="m 58.14298,181.46498 v 9.19956"
       style="fill:none;stroke:#000000;stroke-width:0.23271215;stroke-linecap:butt;stroke-linejoin:miter;stroke-miterlimit:4;stroke-dasharray:none;stroke-opacity:1;marker-start:url(#marker5483)" />
    <g
       id="g5136">
      <rect
         ry="0.28095785"
         rx="0.50135297"
         y="175.19167"
         x="72.364532"
         height="6.5841265"
         width="13.264991"
         id="rect4694"
         style="opacity:1;fill:#ffffff;fill-opacity:1;stroke:#969696;stroke-width:0.19891573;stroke-miterlimit:4;stroke-dasharray:none;stroke-dashoffset:0;stroke-opacity:1" />
      <text
         id="text4560"
         y="179.74635"
         x="74.436584"
         style="font-style:normal;font-variant:normal;font-weight:normal;font-stretch:normal;font-size:3.52777767px;line-height:1.25;font-family:Arial;-inkscape-font-specification:'Arial, Normal';font-variant-ligatures:normal;font-variant-caps:normal;font-variant-numeric:normal;font-feature-settings:normal;text-align:start;letter-spacing:0px;word-spacing:0px;writing-mode:lr-tb;text-anchor:start;fill:#000000;fill-opacity:1;stroke:none;stroke-width:0.26458332"
         xml:space="preserve"><tspan
           id="tspan4562"
           style="stroke-width:0.26458332"
           y="179.74635"
           x="74.436584"
           sodipodi:role="line">NTLS</tspan></text>
    </g>
    <rect
       style="opacity:1;fill:#f2f2f2;fill-opacity:1;stroke:#969696;stroke-width:0.26499999;stroke-miterlimit:4;stroke-dasharray:none;stroke-dashoffset:0;stroke-opacity:1"
       id="rect4590"
       width="35.814117"
       height="27.929667"
       x="99.156998"
       y="164.58025"
       rx="0.49999899"
       ry="0.49999899" />
    <path
       style="fill:none;stroke:#000000;stroke-width:0.26499999;stroke-linecap:butt;stroke-linejoin:miter;stroke-miterlimit:4;stroke-dasharray:none;stroke-opacity:1;marker-start:url(#marker5024)"
       d="M 117.06406,164.58024 V 147.02836"
       id="path4713"
       inkscape:connector-curvature="0" />
    <path
       style="fill:none;stroke:#000000;stroke-width:0.30494428;stroke-linecap:butt;stroke-linejoin:miter;stroke-miterlimit:4;stroke-dasharray:none;stroke-opacity:1;marker-start:url(#Arrow1Mstart)"
       d="M 35.546799,157.49802 V 147.13609"
       id="path4715"
       inkscape:connector-curvature="0" />
    <path
       style="fill:none;stroke:#000000;stroke-width:0.26499999;stroke-linecap:butt;stroke-linejoin:miter;stroke-miterlimit:4;stroke-dasharray:none;stroke-opacity:1"
       d="M 35.546799,147.13609 H 117.06405"
       id="path4717"
       inkscape:connector-curvature="0" />
    <g
       id="g4732"
       transform="translate(-0.56696429,-8.6556548)"
       style="stroke-width:0.26499999;stroke-miterlimit:4;stroke-dasharray:none">
      <rect
         ry="0.49999899"
         rx="0.49999899"
         y="151.95163"
         x="69.642113"
         height="7.3705359"
         width="18.898809"
         id="rect4719"
         style="opacity:1;fill:#ffffff;fill-opacity:1;stroke:#969696;stroke-width:0.26499999;stroke-miterlimit:4;stroke-dasharray:none;stroke-dashoffset:0;stroke-opacity:1" />
      <text
         id="text4566"
         y="156.89952"
         x="71.133347"
         style="font-style:normal;font-variant:normal;font-weight:normal;font-stretch:normal;font-size:3.52777767px;line-height:1.25;font-family:Arial;-inkscape-font-specification:'Arial, Normal';font-variant-ligatures:normal;font-variant-caps:normal;font-variant-numeric:normal;font-feature-settings:normal;text-align:start;letter-spacing:0px;word-spacing:0px;writing-mode:lr-tb;text-anchor:start;fill:#000000;fill-opacity:1;stroke:none;stroke-width:0.26499999;stroke-miterlimit:4;stroke-dasharray:none"
         xml:space="preserve"><tspan
           style="stroke-width:0.26499999;stroke-miterlimit:4;stroke-dasharray:none"
           y="156.89952"
           x="71.133347"
           id="tspan4564"
           sodipodi:role="line">Certificate</tspan></text>
    </g>
    <g
       id="g4757"
       transform="translate(-0.3896586,0.72777923)">
      <path
         inkscape:connector-curvature="0"
         style="fill:#000000;fill-opacity:1;fill-rule:nonzero;stroke:none;stroke-width:0.26458332"
         d="m 115.83447,176.35681 0.33867,0.0847 c -0.0635,0.27516 -0.1905,0.48683 -0.381,0.63499 -0.16933,0.14817 -0.40216,0.21167 -0.65616,0.21167 -0.27516,0 -0.508,-0.0635 -0.67733,-0.16933 -0.16933,-0.10584 -0.29633,-0.27517 -0.381,-0.48683 -0.0847,-0.1905 -0.12699,-0.42333 -0.12699,-0.65617 0,-0.27516 0.0423,-0.50799 0.14816,-0.69849 0.10583,-0.1905 0.23283,-0.33866 0.42333,-0.4445 0.1905,-0.10583 0.381,-0.14816 0.61383,-0.14816 0.254,0 0.46566,0.0635 0.635,0.1905 0.16933,0.127 0.29633,0.29633 0.35983,0.52916 l -0.3175,0.0847 c -0.0635,-0.1905 -0.14817,-0.3175 -0.254,-0.40217 -0.127,-0.0847 -0.254,-0.127 -0.42333,-0.127 -0.21167,0 -0.35983,0.0423 -0.48683,0.14817 -0.14817,0.0847 -0.23283,0.21166 -0.27516,0.381 -0.0635,0.14816 -0.0847,0.31749 -0.0847,0.46566 0,0.23283 0.0212,0.40216 0.0847,0.57149 0.0635,0.16934 0.16933,0.27517 0.29633,0.35983 0.127,0.0847 0.27516,0.127 0.42333,0.127 0.1905,0 0.35983,-0.0635 0.48683,-0.16933 0.127,-0.10583 0.21166,-0.27516 0.25399,-0.48683 z"
         id="path4622" />
      <path
         inkscape:connector-curvature="0"
         style="fill:#000000;fill-opacity:1;fill-rule:nonzero;stroke:none;stroke-width:0.26458332"
         d="m 116.53297,177.24581 v -2.51882 h 0.3175 v 2.51882 z"
         id="path4624" />
      <path
         inkscape:connector-curvature="0"
         style="fill:#000000;fill-opacity:1;fill-rule:nonzero;stroke:none;stroke-width:0.26458332"
         d="m 117.3373,175.08682 v -0.35983 h 0.31749 v 0.35983 z m 0,2.15899 v -1.82032 h 0.31749 v 1.82032 z"
         id="path4626" />
      <path
         inkscape:connector-curvature="0"
         style="fill:#000000;fill-opacity:1;fill-rule:nonzero;stroke:none;stroke-width:0.26458332"
         d="m 119.36928,176.65314 0.3175,0.0423 c -0.0423,0.19049 -0.127,0.33866 -0.27516,0.44449 -0.127,0.10584 -0.3175,0.14817 -0.52917,0.14817 -0.254,0 -0.46566,-0.0847 -0.63499,-0.254 -0.14817,-0.14817 -0.23283,-0.381 -0.23283,-0.67733 0,-0.3175 0.0847,-0.55033 0.23283,-0.71966 0.16933,-0.16933 0.38099,-0.254 0.61383,-0.254 0.25399,0 0.44449,0.0847 0.61382,0.23283 0.14817,0.16934 0.23284,0.40217 0.23284,0.71967 0,0.0212 0,0.0423 0,0.0847 h -1.37583 c 0.0212,0.1905 0.0635,0.33867 0.16934,0.4445 0.10583,0.10583 0.23283,0.16933 0.38099,0.16933 0.127,0 0.21167,-0.0212 0.29633,-0.0847 0.0847,-0.0635 0.14817,-0.16933 0.1905,-0.29633 z m -1.01599,-0.48683 h 1.01599 c 0,-0.16933 -0.0423,-0.27516 -0.10583,-0.35983 -0.10583,-0.10583 -0.23283,-0.16933 -0.381,-0.16933 -0.14816,0 -0.27516,0.0423 -0.35983,0.127 -0.10583,0.10583 -0.14816,0.23283 -0.16933,0.40216 z"
         id="path4628" />
      <path
         inkscape:connector-curvature="0"
         style="fill:#000000;fill-opacity:1;fill-rule:nonzero;stroke:none;stroke-width:0.26458332"
         d="m 120.08894,177.24581 v -1.82032 h 0.27517 v 0.25399 c 0.127,-0.21166 0.3175,-0.29633 0.57149,-0.29633 0.127,0 0.21167,0.0212 0.3175,0.0635 0.0847,0.0212 0.14817,0.0847 0.21167,0.14817 0.0423,0.0635 0.0635,0.14816 0.0847,0.23283 0.0212,0.0423 0.0212,0.14816 0.0212,0.29633 v 1.12183 h -0.3175 v -1.12183 c 0,-0.10583 0,-0.21166 -0.0212,-0.27516 -0.0212,-0.0635 -0.0847,-0.10584 -0.127,-0.14817 -0.0635,-0.0423 -0.14817,-0.0635 -0.23283,-0.0635 -0.127,0 -0.23283,0.0423 -0.33867,0.127 -0.0847,0.0847 -0.14816,0.254 -0.14816,0.48683 v 0.99483 z"
         id="path4630" />
      <path
         inkscape:connector-curvature="0"
         style="fill:#000000;fill-opacity:1;fill-rule:nonzero;stroke:none;stroke-width:0.26458332"
         d="m 122.73476,176.97064 0.0423,0.27517 c -0.0847,0.0212 -0.16933,0.0212 -0.23283,0.0212 -0.127,0 -0.21167,-0.0212 -0.27517,-0.0423 -0.0635,-0.0423 -0.10583,-0.0847 -0.127,-0.14817 -0.0212,-0.0635 -0.0423,-0.16933 -0.0423,-0.35983 v -1.05832 h -0.21166 v -0.23283 h 0.21166 v -0.46567 l 0.3175,-0.1905 v 0.65617 h 0.3175 v 0.23283 h -0.3175 v 1.07949 c 0,0.0847 0,0.127 0.0212,0.16933 0,0.0212 0.0212,0.0423 0.0423,0.0423 0.0212,0.0212 0.0635,0.0423 0.10583,0.0423 0.0423,0 0.0847,-0.0212 0.14817,-0.0212 z"
         id="path4632" />
      <path
         inkscape:connector-curvature="0"
         style="fill:#b3b3b3;fill-opacity:1;fill-rule:nonzero;stroke:none;stroke-width:0.26458332"
         d="m 104.15056,167.48804 h 9.69426 v 21.42051 h -9.69426 z"
         id="path4634" />
      <path
         inkscape:connector-curvature="0"
         style="fill:#999999;fill-opacity:1;fill-rule:nonzero;stroke:none;stroke-width:0.26458332"
         d="m 106.69054,166.72605 -2.53998,0.76199 h 9.69426 l -2.53998,-0.76199 z"
         id="path4636" />
      <path
         inkscape:connector-curvature="0"
         style="fill:#e6e6e6;fill-opacity:1;fill-rule:nonzero;stroke:none;stroke-width:0.26458332"
         d="m 105.42055,168.94853 h 7.17545 v 1.48166 h -7.17545 z"
         id="path4638" />
      <path
         inkscape:connector-curvature="0"
         style="fill:#e6e6e6;fill-opacity:1;fill-rule:nonzero;stroke:none;stroke-width:0.26458332"
         d="m 105.42055,171.06518 h 7.17545 v 1.50283 h -7.17545 z"
         id="path4640" />
      <path
         inkscape:connector-curvature="0"
         style="fill:#e6e6e6;fill-opacity:1;fill-rule:nonzero;stroke:none;stroke-width:0.26458332"
         d="m 105.42055,183.53226 h 7.13312 v 0.69849 h -7.13312 z"
         id="path4642" />
      <path
         inkscape:connector-curvature="0"
         style="fill:#e6e6e6;fill-opacity:1;fill-rule:nonzero;stroke:none;stroke-width:0.26458332"
         d="m 105.42055,184.80225 h 7.13312 v 0.67733 h -7.13312 z"
         id="path4644" />
      <path
         inkscape:connector-curvature="0"
         style="fill:#e6e6e6;fill-opacity:1;fill-rule:nonzero;stroke:none;stroke-width:0.26458332"
         d="m 105.42055,186.05107 h 7.13312 v 0.6985 h -7.13312 z"
         id="path4646" />
      <path
         inkscape:connector-curvature="0"
         style="fill:#999999;fill-opacity:1;fill-rule:nonzero;stroke:none;stroke-width:0.26458332"
         d="m 107.81237,173.73216 h 22.4365 c 0.27516,0 0.508,0.21167 0.508,0.48683 v 11.26059 c 0,0.27516 -0.23284,0.48683 -0.508,0.48683 h -22.4365 c -0.27517,0 -0.48683,-0.21167 -0.48683,-0.48683 v -11.26059 c 0,-0.27516 0.21166,-0.48683 0.48683,-0.48683 z"
         id="path4648" />
      <path
         inkscape:connector-curvature="0"
         style="fill:#999999;fill-opacity:1;fill-rule:nonzero;stroke:none;stroke-width:0.26458332"
         d="m 119.03062,187.68089 c -3.45014,0.0212 -6.68862,0.48683 -8.57244,1.22766 h 17.16604 c -1.90498,-0.74083 -5.14346,-1.20649 -8.5936,-1.22766 z"
         id="path4650" />
      <path
         inkscape:connector-curvature="0"
         style="fill:#ffffff;fill-opacity:1;fill-rule:nonzero;stroke:none;stroke-width:0.26458332"
         d="m 108.12987,174.34599 h 21.82267 c 0.0847,0 0.16933,0.0847 0.16933,0.16934 v 10.66792 c 0,0.0847 -0.0847,0.16933 -0.16933,0.16933 h -21.82267 c -0.10584,0 -0.1905,-0.0847 -0.1905,-0.16933 v -10.66792 c 0,-0.0847 0.0847,-0.16934 0.1905,-0.16934 z"
         id="path4652" />
      <path
         inkscape:connector-curvature="0"
         style="fill:#999999;fill-opacity:1;fill-rule:nonzero;stroke:none;stroke-width:0.26458332"
         d="m 116.8293,185.69124 h 4.40264 v 2.98448 h -4.40264 z"
         id="path4654" />
      <path
         inkscape:connector-curvature="0"
         style="fill:#000000;fill-opacity:1;fill-rule:nonzero;stroke:none;stroke-width:0.26458332"
         d="m 115.83447,179.53179 0.33867,0.0847 c -0.0635,0.27517 -0.1905,0.48683 -0.381,0.635 -0.16933,0.14817 -0.40216,0.21166 -0.65616,0.21166 -0.27516,0 -0.508,-0.0635 -0.67733,-0.16933 -0.16933,-0.10583 -0.29633,-0.27516 -0.381,-0.48683 -0.0847,-0.1905 -0.12699,-0.42333 -0.12699,-0.65616 0,-0.27516 0.0423,-0.508 0.14816,-0.69849 0.10583,-0.1905 0.23283,-0.33867 0.42333,-0.4445 0.1905,-0.10583 0.381,-0.14817 0.61383,-0.14817 0.254,0 0.46566,0.0635 0.635,0.1905 0.16933,0.127 0.29633,0.29633 0.35983,0.52917 l -0.3175,0.0847 c -0.0635,-0.1905 -0.14817,-0.3175 -0.254,-0.40216 -0.127,-0.0847 -0.254,-0.127 -0.42333,-0.127 -0.21167,0 -0.35983,0.0423 -0.48683,0.14816 -0.14817,0.0847 -0.23283,0.21167 -0.27516,0.381 -0.0635,0.14817 -0.0847,0.3175 -0.0847,0.46566 0,0.23284 0.0212,0.40217 0.0847,0.5715 0.0635,0.16933 0.16933,0.27517 0.29633,0.35983 0.127,0.0847 0.27516,0.127 0.42333,0.127 0.1905,0 0.35983,-0.0635 0.48683,-0.16933 0.127,-0.10583 0.21166,-0.27517 0.25399,-0.48683 z"
         id="path4656" />
      <path
         inkscape:connector-curvature="0"
         style="fill:#000000;fill-opacity:1;fill-rule:nonzero;stroke:none;stroke-width:0.26458332"
         d="m 116.53297,180.42078 v -2.51881 h 0.3175 v 2.51881 z"
         id="path4658" />
      <path
         inkscape:connector-curvature="0"
         style="fill:#000000;fill-opacity:1;fill-rule:nonzero;stroke:none;stroke-width:0.26458332"
         d="m 117.3373,178.2618 v -0.35983 h 0.31749 v 0.35983 z m 0,2.15898 v -1.82032 h 0.31749 v 1.82032 z"
         id="path4660" />
      <path
         inkscape:connector-curvature="0"
         style="fill:#000000;fill-opacity:1;fill-rule:nonzero;stroke:none;stroke-width:0.26458332"
         d="m 119.36928,179.82812 0.3175,0.0423 c -0.0423,0.1905 -0.127,0.33867 -0.27516,0.4445 -0.127,0.10583 -0.3175,0.14816 -0.52917,0.14816 -0.254,0 -0.46566,-0.0847 -0.63499,-0.25399 -0.14817,-0.14817 -0.23283,-0.381 -0.23283,-0.67733 0,-0.3175 0.0847,-0.55033 0.23283,-0.71966 0.16933,-0.16934 0.38099,-0.254 0.61383,-0.254 0.25399,0 0.44449,0.0847 0.61382,0.23283 0.14817,0.16933 0.23284,0.40216 0.23284,0.71966 0,0.0212 0,0.0423 0,0.0847 h -1.37583 c 0.0212,0.1905 0.0635,0.33866 0.16934,0.44449 0.10583,0.10584 0.23283,0.16934 0.38099,0.16934 0.127,0 0.21167,-0.0212 0.29633,-0.0847 0.0847,-0.0635 0.14817,-0.16933 0.1905,-0.29633 z m -1.01599,-0.48683 h 1.01599 c 0,-0.16933 -0.0423,-0.27516 -0.10583,-0.35983 -0.10583,-0.10583 -0.23283,-0.16933 -0.381,-0.16933 -0.14816,0 -0.27516,0.0423 -0.35983,0.127 -0.10583,0.10583 -0.14816,0.23283 -0.16933,0.40216 z"
         id="path4662" />
      <path
         inkscape:connector-curvature="0"
         style="fill:#000000;fill-opacity:1;fill-rule:nonzero;stroke:none;stroke-width:0.26458332"
         d="m 120.08894,180.42078 v -1.82032 h 0.27517 v 0.254 c 0.127,-0.21167 0.3175,-0.29633 0.57149,-0.29633 0.127,0 0.21167,0.0212 0.3175,0.0635 0.0847,0.0212 0.14817,0.0847 0.21167,0.14816 0.0423,0.0635 0.0635,0.14817 0.0847,0.23284 0.0212,0.0423 0.0212,0.14816 0.0212,0.29633 v 1.12182 h -0.3175 v -1.12182 c 0,-0.10584 0,-0.21167 -0.0212,-0.27517 -0.0212,-0.0635 -0.0847,-0.10583 -0.127,-0.14816 -0.0635,-0.0423 -0.14817,-0.0635 -0.23283,-0.0635 -0.127,0 -0.23283,0.0423 -0.33867,0.127 -0.0847,0.0847 -0.14816,0.25399 -0.14816,0.48683 v 0.99482 z"
         id="path4664" />
      <path
         inkscape:connector-curvature="0"
         style="fill:#000000;fill-opacity:1;fill-rule:nonzero;stroke:none;stroke-width:0.26458332"
         d="m 122.73476,180.14562 0.0423,0.27516 c -0.0847,0.0212 -0.16933,0.0212 -0.23283,0.0212 -0.127,0 -0.21167,-0.0212 -0.27517,-0.0423 -0.0635,-0.0423 -0.10583,-0.0847 -0.127,-0.14817 -0.0212,-0.0635 -0.0423,-0.16933 -0.0423,-0.35983 v -1.05833 h -0.21166 v -0.23283 h 0.21166 v -0.46566 l 0.3175,-0.1905 v 0.65616 h 0.3175 v 0.23283 h -0.3175 v 1.0795 c 0,0.0847 0,0.12699 0.0212,0.16933 0,0.0212 0.0212,0.0423 0.0423,0.0423 0.0212,0.0212 0.0635,0.0423 0.10583,0.0423 0.0423,0 0.0847,-0.0212 0.14817,-0.0212 z"
         id="path4666" />
    </g>
  </g>
</svg>
