<?xml version="1.0" encoding="UTF-8" standalone="no"?>
<!-- Created with Inkscape (http://www.inkscape.org/) -->

<svg
   xmlns:dc="http://purl.org/dc/elements/1.1/"
   xmlns:cc="http://creativecommons.org/ns#"
   xmlns:rdf="http://www.w3.org/1999/02/22-rdf-syntax-ns#"
   xmlns:svg="http://www.w3.org/2000/svg"
   xmlns="http://www.w3.org/2000/svg"
   xmlns:sodipodi="http://sodipodi.sourceforge.net/DTD/sodipodi-0.dtd"
   xmlns:inkscape="http://www.inkscape.org/namespaces/inkscape"
   width="10.583333mm"
   height="43.729321mm"
   viewBox="0 0 10.583333 43.72932"
   version="1.1"
   id="svg8"
   inkscape:version="0.92.2 (5c3e80d, 2017-08-06)"
   sodipodi:docname="PEDkey_label.svg">
  <defs
     id="defs2">
    <inkscape:perspective
       sodipodi:type="inkscape:persp3d"
       inkscape:vp_x="0 : 148.49999 : 1"
       inkscape:vp_y="0 : 999.99995 : 0"
       inkscape:vp_z="210.00001 : 148.49999 : 1"
       inkscape:persp3d-origin="105 : 98.999995 : 1"
       id="perspective4757" />
    <inkscape:perspective
       id="perspective4757-8"
       inkscape:persp3d-origin="105 : 99.000001 : 1"
       inkscape:vp_z="210 : 148.5 : 1"
       inkscape:vp_y="0 : 1000 : 0"
       inkscape:vp_x="0 : 148.5 : 1"
       sodipodi:type="inkscape:persp3d" />
    <inkscape:perspective
       sodipodi:type="inkscape:persp3d"
       inkscape:vp_x="0 : 148.5 : 1"
       inkscape:vp_y="0 : 1000 : 0"
       inkscape:vp_z="209.99999 : 148.5 : 1"
       inkscape:persp3d-origin="104.99999 : 99.000001 : 1"
       id="perspective4757-7" />
    <inkscape:perspective
       id="perspective4757-1"
       inkscape:persp3d-origin="104.99999 : 99.000001 : 1"
       inkscape:vp_z="209.99999 : 148.5 : 1"
       inkscape:vp_y="0 : 1000 : 0"
       inkscape:vp_x="0 : 148.5 : 1"
       sodipodi:type="inkscape:persp3d" />
    <inkscape:perspective
       id="perspective4757-5"
       inkscape:persp3d-origin="104.99999 : 99.000001 : 1"
       inkscape:vp_z="209.99999 : 148.5 : 1"
       inkscape:vp_y="0 : 1000 : 0"
       inkscape:vp_x="0 : 148.5 : 1"
       sodipodi:type="inkscape:persp3d" />
    <inkscape:perspective
       id="perspective4757-9"
       inkscape:persp3d-origin="104.99999 : 99.000001 : 1"
       inkscape:vp_z="209.99999 : 148.5 : 1"
       inkscape:vp_y="0 : 1000 : 0"
       inkscape:vp_x="0 : 148.5 : 1"
       sodipodi:type="inkscape:persp3d" />
    <inkscape:perspective
       id="perspective4757-11"
       inkscape:persp3d-origin="104.99999 : 99.000001 : 1"
       inkscape:vp_z="209.99999 : 148.5 : 1"
       inkscape:vp_y="0 : 1000 : 0"
       inkscape:vp_x="0 : 148.5 : 1"
       sodipodi:type="inkscape:persp3d" />
    <inkscape:perspective
       sodipodi:type="inkscape:persp3d"
       inkscape:vp_x="0 : 148.5 : 1"
       inkscape:vp_y="0 : 1000 : 0"
       inkscape:vp_z="209.99999 : 148.5 : 1"
       inkscape:persp3d-origin="104.99999 : 99.000001 : 1"
       id="perspective4757-1-8" />
    <inkscape:perspective
       sodipodi:type="inkscape:persp3d"
       inkscape:vp_x="0 : 148.5 : 1"
       inkscape:vp_y="0 : 1000 : 0"
       inkscape:vp_z="209.99999 : 148.5 : 1"
       inkscape:persp3d-origin="104.99999 : 99.000001 : 1"
       id="perspective4757-5-9" />
    <inkscape:perspective
       sodipodi:type="inkscape:persp3d"
       inkscape:vp_x="0 : 148.5 : 1"
       inkscape:vp_y="0 : 1000 : 0"
       inkscape:vp_z="209.99999 : 148.5 : 1"
       inkscape:persp3d-origin="104.99999 : 99.000001 : 1"
       id="perspective4757-9-6" />
    <inkscape:perspective
       id="perspective4757-51"
       inkscape:persp3d-origin="104.99999 : 99 : 1"
       inkscape:vp_z="209.99999 : 148.5 : 1"
       inkscape:vp_y="0 : 1000 : 0"
       inkscape:vp_x="0 : 148.5 : 1"
       sodipodi:type="inkscape:persp3d" />
    <inkscape:perspective
       sodipodi:type="inkscape:persp3d"
       inkscape:vp_x="0 : 148.5 : 1"
       inkscape:vp_y="0 : 1000 : 0"
       inkscape:vp_z="209.99999 : 148.5 : 1"
       inkscape:persp3d-origin="104.99999 : 99 : 1"
       id="perspective4757-1-5" />
    <inkscape:perspective
       sodipodi:type="inkscape:persp3d"
       inkscape:vp_x="0 : 148.5 : 1"
       inkscape:vp_y="0 : 1000 : 0"
       inkscape:vp_z="209.99999 : 148.5 : 1"
       inkscape:persp3d-origin="104.99999 : 99 : 1"
       id="perspective4757-5-3" />
    <inkscape:perspective
       sodipodi:type="inkscape:persp3d"
       inkscape:vp_x="0 : 148.5 : 1"
       inkscape:vp_y="0 : 1000 : 0"
       inkscape:vp_z="209.99999 : 148.5 : 1"
       inkscape:persp3d-origin="104.99999 : 99 : 1"
       id="perspective4757-9-8" />
    <inkscape:perspective
       sodipodi:type="inkscape:persp3d"
       inkscape:vp_x="0 : 148.5 : 1"
       inkscape:vp_y="0 : 1000 : 0"
       inkscape:vp_z="210 : 148.5 : 1"
       inkscape:persp3d-origin="105 : 99.000001 : 1"
       id="perspective4757-3" />
    <inkscape:perspective
       sodipodi:type="inkscape:persp3d"
       inkscape:vp_x="0 : 148.50001 : 1"
       inkscape:vp_y="0 : 1000 : 0"
       inkscape:vp_z="209.99998 : 148.50001 : 1"
       inkscape:persp3d-origin="104.99999 : 99.000007 : 1"
       id="perspective4757-8-8" />
    <inkscape:perspective
       id="perspective4757-1-84"
       inkscape:persp3d-origin="104.99999 : 99.000007 : 1"
       inkscape:vp_z="209.99998 : 148.50001 : 1"
       inkscape:vp_y="0 : 1000 : 0"
       inkscape:vp_x="0 : 148.50001 : 1"
       sodipodi:type="inkscape:persp3d" />
    <inkscape:perspective
       id="perspective4757-5-8"
       inkscape:persp3d-origin="104.99999 : 99.000007 : 1"
       inkscape:vp_z="209.99998 : 148.50001 : 1"
       inkscape:vp_y="0 : 1000 : 0"
       inkscape:vp_x="0 : 148.50001 : 1"
       sodipodi:type="inkscape:persp3d" />
    <inkscape:perspective
       id="perspective4757-9-0"
       inkscape:persp3d-origin="104.99999 : 99.000007 : 1"
       inkscape:vp_z="209.99998 : 148.50001 : 1"
       inkscape:vp_y="0 : 1000 : 0"
       inkscape:vp_x="0 : 148.50001 : 1"
       sodipodi:type="inkscape:persp3d" />
    <inkscape:perspective
       sodipodi:type="inkscape:persp3d"
       inkscape:vp_x="0 : 148.5 : 1"
       inkscape:vp_y="0 : 1000 : 0"
       inkscape:vp_z="210.00001 : 148.5 : 1"
       inkscape:persp3d-origin="105.00001 : 99.000003 : 1"
       id="perspective4757-39" />
    <inkscape:perspective
       sodipodi:type="inkscape:persp3d"
       inkscape:vp_x="0 : 148.50001 : 1"
       inkscape:vp_y="0 : 1000 : 0"
       inkscape:vp_z="209.99999 : 148.50001 : 1"
       inkscape:persp3d-origin="105 : 99.000009 : 1"
       id="perspective4757-8-2" />
    <inkscape:perspective
       id="perspective4757-1-7"
       inkscape:persp3d-origin="105 : 99.000009 : 1"
       inkscape:vp_z="209.99999 : 148.50001 : 1"
       inkscape:vp_y="0 : 1000 : 0"
       inkscape:vp_x="0 : 148.50001 : 1"
       sodipodi:type="inkscape:persp3d" />
    <inkscape:perspective
       id="perspective4757-5-34"
       inkscape:persp3d-origin="105 : 99.000009 : 1"
       inkscape:vp_z="209.99999 : 148.50001 : 1"
       inkscape:vp_y="0 : 1000 : 0"
       inkscape:vp_x="0 : 148.50001 : 1"
       sodipodi:type="inkscape:persp3d" />
    <inkscape:perspective
       id="perspective4757-9-2"
       inkscape:persp3d-origin="105 : 99.000009 : 1"
       inkscape:vp_z="209.99999 : 148.50001 : 1"
       inkscape:vp_y="0 : 1000 : 0"
       inkscape:vp_x="0 : 148.50001 : 1"
       sodipodi:type="inkscape:persp3d" />
  </defs>
  <sodipodi:namedview
     id="base"
     pagecolor="#ffffff"
     bordercolor="#666666"
     borderopacity="1.0"
     inkscape:pageopacity="0.0"
     inkscape:pageshadow="2"
     inkscape:zoom="2.8284271"
     inkscape:cx="-31.534651"
     inkscape:cy="71.595719"
     inkscape:document-units="mm"
     inkscape:current-layer="layer1"
     showgrid="false"
     fit-margin-top="0"
     fit-margin-left="0"
     fit-margin-right="0"
     fit-margin-bottom="0"
     inkscape:window-width="1920"
     inkscape:window-height="1005"
     inkscape:window-x="-9"
     inkscape:window-y="-9"
     inkscape:window-maximized="1" />
  <metadata
     id="metadata5">
    <rdf:RDF>
      <cc:Work
         rdf:about="">
        <dc:format>image/svg+xml</dc:format>
        <dc:type
           rdf:resource="http://purl.org/dc/dcmitype/StillImage" />
        <dc:title />
      </cc:Work>
    </rdf:RDF>
  </metadata>
  <g
     inkscape:label="Layer 1"
     inkscape:groupmode="layer"
     id="layer1"
     transform="translate(117.54203,67.65149)">
    <g
       id="g845"
       transform="matrix(4.000005,0,0,4.000005,336.75166,105.05364)">
      <path
         inkscape:connector-curvature="0"
         id="path4810"
         d="m -112.28954,-40.162299 a 3.8557528,3.8649988 0 0 0 -1.08479,0.164766 c 0.0199,1.629973 0.51703,2.926554 1.12238,2.927595 0.60196,-0.0019 1.09774,-1.287822 1.12181,-2.908784 a 3.8557528,3.8649988 0 0 0 -1.1594,-0.183577 z"
         style="opacity:1;fill:#000000;fill-opacity:1;fill-rule:nonzero;stroke:none;stroke-width:0.10542274;stroke-linecap:round;stroke-linejoin:round;stroke-miterlimit:4;stroke-dasharray:none;stroke-dashoffset:0;stroke-opacity:1;paint-order:markers fill stroke" />
      <path
         inkscape:connector-curvature="0"
         id="path4810-9"
         d="m -112.27517,-41.319521 a 3.8557528,3.8557528 0 0 0 -1.29811,0.229103 v 1.157439 a 3.8557528,3.8557528 0 0 1 1.28387,-0.224372 3.8557528,3.8557528 0 0 1 1.36196,0.253421 v -1.167362 a 3.8557528,3.8557528 0 0 0 -1.34772,-0.248229 z m 0.0231,0.23774 a 1.0389298,0.19943405 0 0 1 1.03893,0.199437 1.0389298,0.19943405 0 0 1 -1.03893,0.199384 1.0389298,0.19943405 0 0 1 -1.03893,-0.199384 1.0389298,0.19943405 0 0 1 1.03893,-0.199437 z"
         style="opacity:1;fill:#d9d9d9;fill-opacity:1;fill-rule:nonzero;stroke:none;stroke-width:0.10529656;stroke-linecap:round;stroke-linejoin:round;stroke-miterlimit:4;stroke-dasharray:none;stroke-dashoffset:0;stroke-opacity:1;paint-order:markers fill stroke" />
      <path
         sodipodi:nodetypes="ccccccccccccccccccccccccccccccccccccccc"
         inkscape:connector-curvature="0"
         id="path4893-0"
         d="m -113.37433,-39.997928 c -0.067,0.01907 -0.13303,0.04228 -0.1989,0.06495 v 5.337221 h 2.64578 v -5.308172 c -0.0669,-0.02383 -0.13445,-0.05085 -0.20257,-0.07095 -4e-4,0.102976 -0.002,0.210906 -0.004,0.313524 -0.004,0.146442 -0.009,0.292058 -0.0168,0.436303 -0.007,0.144253 -0.0167,0.286952 -0.0278,0.427561 -0.011,0.140618 -0.0239,0.278975 -0.0385,0.414554 -0.0146,0.13556 -0.0309,0.268169 -0.0488,0.39733 -0.018,0.129169 -0.0376,0.254725 -0.0587,0.376199 -0.0211,0.12148 -0.0438,0.238732 -0.0679,0.351314 -0.0241,0.112576 -0.0497,0.220338 -0.0765,0.322882 -0.0269,0.102537 -0.055,0.199729 -0.0844,0.291211 -0.0293,0.0915 -0.0598,0.177176 -0.0913,0.256712 -0.0315,0.07951 -0.064,0.152784 -0.0974,0.219539 -0.0334,0.06677 -0.0676,0.126928 -0.10252,0.180258 -0.0349,0.05334 -0.0705,0.09979 -0.10653,0.139179 -0.0361,0.03936 -0.0727,0.0716 -0.10956,0.09661 -0.0369,0.02503 -0.0741,0.04279 -0.11147,0.05321 -0.0264,0.0074 -0.0529,0.01105 -0.0794,0.01105 -0.0374,-2e-6 -0.0749,-0.0074 -0.11213,-0.02206 -0.0373,-0.0147 -0.0743,-0.03671 -0.11106,-0.06596 -0.0367,-0.02923 -0.073,-0.06566 -0.10879,-0.109152 -0.0358,-0.0435 -0.071,-0.094 -0.10545,-0.151313 -0.0345,-0.05731 -0.0683,-0.121366 -0.10113,-0.19193 -0.0329,-0.07058 -0.0648,-0.147578 -0.0957,-0.230696 -0.0309,-0.0831 -0.0608,-0.172227 -0.0894,-0.267046 -0.0286,-0.09481 -0.0561,-0.195196 -0.0822,-0.300774 -0.0261,-0.105584 -0.0508,-0.216228 -0.0741,-0.33152 -0.0233,-0.115305 -0.0451,-0.235113 -0.0653,-0.358974 -0.0202,-0.123852 -0.0389,-0.251605 -0.0559,-0.38278 -0.017,-0.131171 -0.0323,-0.265599 -0.0459,-0.40278 -0.0136,-0.137182 -0.0254,-0.276946 -0.0354,-0.41877 -0.01,-0.141814 -0.0182,-0.285508 -0.0246,-0.430543 -0.006,-0.145057 -0.0109,-0.291274 -0.0135,-0.438102 -0.001,-0.06852 -0.002,-0.139453 -0.002,-0.208087 z"
         style="opacity:1;fill:#999999;fill-opacity:1;fill-rule:nonzero;stroke:none;stroke-width:0.10529656;stroke-linecap:round;stroke-linejoin:round;stroke-miterlimit:4;stroke-dasharray:none;stroke-dashoffset:0;stroke-opacity:1;paint-order:markers fill stroke" />
      <path
         sodipodi:nodetypes="cccccccccccccccccccccccccscccccccccccc"
         inkscape:connector-curvature="0"
         id="rect4751-9-4-2"
         d="m -113.37433,-39.997928 v 0 c 2e-4,0.06863 0.001,0.139566 0.002,0.208087 0.003,0.146829 0.007,0.293045 0.0135,0.438102 0.006,0.145035 0.0146,0.288729 0.0246,0.430543 0.01,0.141824 0.0219,0.281589 0.0354,0.41877 0.0136,0.137181 0.0289,0.271609 0.0459,0.40278 0.017,0.131176 0.0357,0.258928 0.0559,0.38278 0.0202,0.123861 0.042,0.243669 0.0653,0.358975 0.0233,0.115291 0.048,0.225935 0.0741,0.33152 0.0261,0.105578 0.0535,0.205961 0.0822,0.300773 0.0287,0.09482 0.0585,0.183945 0.0894,0.267046 0.0309,0.08312 0.0628,0.160113 0.0957,0.230697 0.0329,0.07056 0.0666,0.13462 0.10114,0.191929 0.0345,0.05731 0.0697,0.107814 0.10545,0.151313 0.0358,0.04349 0.0721,0.07992 0.10879,0.109152 0.0367,0.02925 0.0738,0.05127 0.11106,0.06596 0.0373,0.01469 0.0747,0.02206 0.11213,0.02206 0.0265,-10e-7 0.053,-0.0037 0.0794,-0.01105 0.0374,-0.01042 0.0746,-0.02818 0.11147,-0.05321 0.0369,-0.025 0.0735,-0.05725 0.10956,-0.09661 0.0361,-0.03939 0.0716,-0.08584 0.10654,-0.139178 0.0349,-0.05333 0.0691,-0.113492 0.10252,-0.180259 0.0334,-0.06676 0.0659,-0.140026 0.0974,-0.219539 0.0315,-0.07954 0.062,-0.165213 0.0913,-0.256712 0.0293,-0.09148 0.0575,-0.188673 0.0844,-0.291211 0.0269,-0.102544 0.0524,-0.210306 0.0766,-0.322882 0.0241,-0.112582 0.0468,-0.229833 0.0679,-0.351314 0.0212,-0.121474 0.0408,-0.24703 0.0587,-0.376199 0.0179,-0.12916 0.0343,-0.261769 0.0488,-0.39733 0.0146,-0.135579 0.0274,-0.273936 0.0385,-0.414554 0.0111,-0.140609 0.0204,-0.283307 0.0278,-0.427561 0.007,-0.144245 0.013,-0.289861 0.0168,-0.436302 0.002,-0.102618 0.004,-0.210548 0.004,-0.313525 v 0 c -0.0239,1.617401 -0.51976,2.900617 -1.1218,2.902497 -0.60596,-10e-4 -1.10354,-1.297138 -1.12251,-2.925544 z"
         style="opacity:1;fill:#b3b3b3;fill-opacity:1;fill-rule:nonzero;stroke:none;stroke-width:0.10529656;stroke-linecap:round;stroke-linejoin:round;stroke-miterlimit:4;stroke-dasharray:none;stroke-dashoffset:0;stroke-opacity:1;paint-order:markers fill stroke" />
      <rect
         y="-34.595806"
         x="-113.32153"
         height="2.3518939"
         width="2.1289315"
         id="rect4900-5"
         style="opacity:1;fill:#d9d9d9;fill-opacity:1;fill-rule:nonzero;stroke:none;stroke-width:0.10529656;stroke-linecap:round;stroke-linejoin:round;stroke-miterlimit:4;stroke-dasharray:none;stroke-dashoffset:0;stroke-opacity:1;paint-order:markers fill stroke" />
      <rect
         ry="0.11168388"
         y="-33.704006"
         x="-113.10816"
         height="0.44440877"
         width="0.59099382"
         id="rect4902-6"
         style="opacity:1;fill:#b3b3b3;fill-opacity:1;fill-rule:nonzero;stroke:none;stroke-width:0.10267501;stroke-linecap:round;stroke-linejoin:round;stroke-miterlimit:4;stroke-dasharray:none;stroke-dashoffset:0;stroke-opacity:1;paint-order:markers fill stroke" />
      <rect
         ry="0.11168388"
         y="-33.703884"
         x="-112.0097"
         height="0.44440877"
         width="0.59099382"
         id="rect4902-2-0"
         style="opacity:1;fill:#b3b3b3;fill-opacity:1;fill-rule:nonzero;stroke:none;stroke-width:0.10267501;stroke-linecap:round;stroke-linejoin:round;stroke-miterlimit:4;stroke-dasharray:none;stroke-dashoffset:0;stroke-opacity:1;paint-order:markers fill stroke" />
    </g>
    <g
       id="g1147"
       transform="translate(0.1073191)">
      <text
         id="text1053"
         y="-63.210915"
         x="-113.66197"
         style="font-style:normal;font-variant:normal;font-weight:bold;font-stretch:normal;font-size:4.91479349px;line-height:100%;font-family:Arial;-inkscape-font-specification:'Arial Bold';text-align:start;writing-mode:lr-tb;text-anchor:start;opacity:1;fill:#000000;fill-opacity:1;fill-rule:nonzero;stroke:none;stroke-width:0.184595;stroke-miterlimit:4;stroke-dasharray:none;stroke-dashoffset:0;stroke-opacity:1;paint-order:markers fill stroke"
         xml:space="preserve"><tspan
           style="stroke-width:0.184595"
           y="-63.210915"
           x="-113.66197"
           id="tspan1051"
           sodipodi:role="line">7</tspan></text>
      <circle
         r="2.5720603"
         cy="-64.977165"
         cx="-112.35768"
         id="path1059-4"
         style="opacity:1;fill:none;fill-opacity:1;fill-rule:nonzero;stroke:#000000;stroke-width:0.2045289;stroke-miterlimit:4;stroke-dasharray:none;stroke-dashoffset:0;stroke-opacity:1;paint-order:markers fill stroke" />
    </g>
  </g>
</svg>
