<?xml version="1.0" encoding="UTF-8" standalone="no"?>
<!-- Created with Inkscape (http://www.inkscape.org/) -->

<svg
   xmlns:dc="http://purl.org/dc/elements/1.1/"
   xmlns:cc="http://creativecommons.org/ns#"
   xmlns:rdf="http://www.w3.org/1999/02/22-rdf-syntax-ns#"
   xmlns:svg="http://www.w3.org/2000/svg"
   xmlns="http://www.w3.org/2000/svg"
   xmlns:sodipodi="http://sodipodi.sourceforge.net/DTD/sodipodi-0.dtd"
   xmlns:inkscape="http://www.inkscape.org/namespaces/inkscape"
   width="66.145927mm"
   height="68.619156mm"
   viewBox="0 0 66.145927 68.619156"
   version="1.1"
   id="svg8"
   inkscape:version="0.92.2 (5c3e80d, 2017-08-06)"
   sodipodi:docname="safenet-root.svg">
  <defs
     id="defs2" />
  <sodipodi:namedview
     id="base"
     pagecolor="#ffffff"
     bordercolor="#666666"
     borderopacity="1.0"
     inkscape:pageopacity="0.0"
     inkscape:pageshadow="2"
     inkscape:zoom="1.4"
     inkscape:cx="-153.33625"
     inkscape:cy="156.53674"
     inkscape:document-units="mm"
     inkscape:current-layer="layer1"
     showgrid="false"
     inkscape:snap-intersection-paths="false"
     inkscape:window-width="1920"
     inkscape:window-height="1005"
     inkscape:window-x="-9"
     inkscape:window-y="-9"
     inkscape:window-maximized="1" />
  <metadata
     id="metadata5">
    <rdf:RDF>
      <cc:Work
         rdf:about="">
        <dc:format>image/svg+xml</dc:format>
        <dc:type
           rdf:resource="http://purl.org/dc/dcmitype/StillImage" />
        <dc:title />
      </cc:Work>
    </rdf:RDF>
  </metadata>
  <g
     inkscape:label="Layer 1"
     inkscape:groupmode="layer"
     id="layer1"
     transform="translate(-73.573735,-138.60818)">
    <text
       xml:space="preserve"
       style="font-style:normal;font-variant:normal;font-weight:normal;font-stretch:normal;font-size:3.52777767px;line-height:100%;font-family:sans-serif;-inkscape-font-specification:sans-serif;text-align:start;letter-spacing:0px;word-spacing:0px;text-anchor:start;fill:#000000;fill-opacity:1;stroke:none;stroke-width:0.26458332px;stroke-linecap:butt;stroke-linejoin:miter;stroke-opacity:1"
       x="61.471989"
       y="243.81335"
       id="text4768"><tspan
         sodipodi:role="line"
         id="tspan4766"
         x="61.471989"
         y="246.59088"
         style="font-style:normal;font-variant:normal;font-weight:normal;font-stretch:normal;font-family:sans-serif;-inkscape-font-specification:sans-serif;stroke-width:0.26458332px" /></text>
    <g
       id="g4825"
       transform="matrix(0.48595379,0,0,0.48595379,54.821332,88.887717)"
       style="fill:#6c286b;fill-opacity:1">
      <path
         id="path832"
         transform="scale(0.26458333)"
         d="m 403.07422,386.70312 a 64.649758,64.649758 0 0 0 -57.47656,35.08008 64.649762,64.649762 0 0 0 -65.38086,15.81055 l -0.002,-0.002 A 64.649762,64.649762 0 0 0 264.36914,503 a 64.649758,64.649758 0 0 0 -35.13476,57.45117 64.649758,64.649758 0 0 0 35.12109,57.5 64.649762,64.649762 0 0 0 15.79492,65.42383 64.649762,64.649762 0 0 0 32.96484,17.62109 l -31.5332,85.72266 -13.59375,36.95898 57.60547,-20.76953 30.41211,53.14844 13.5957,-36.95898 31.27149,-85.00391 a 64.649758,64.649758 0 0 0 2.20117,0.10547 64.649758,64.649758 0 0 0 2.20312,-0.11133 l 31.26954,85.00977 13.5957,36.95898 30.41601,-53.14844 57.60352,20.76953 L 524.56836,786.71875 493,700.90625 a 64.649762,64.649762 0 0 0 32.93164,-17.5957 64.649762,64.649762 0 0 0 15.84766,-65.40821 64.649758,64.649758 0 0 0 35.13476,-57.45117 64.649758,64.649758 0 0 0 -35.12109,-57.5 64.649762,64.649762 0 0 0 -15.79492,-65.42383 64.649762,64.649762 0 0 0 -65.53125,-15.8125 64.649758,64.649758 0 0 0 -57.39258,-35.01172 z m 135.08789,436.97461 -0.01,0.0332 0.0176,-0.006 z m -270.17383,0 -0.0117,0.0273 0.0215,0.006 z M 403.26953,447.93555 c 4.76189,-0.003 9.48472,0.1257 11.64453,0.38672 14.91436,1.80245 26.28114,5.20301 39.04102,11.67968 33.93736,17.22599 56.32218,49.53787 61.00781,88.06055 0.63436,5.21545 0.54042,20.28431 -0.16016,25.59961 -3.17812,24.1118 -13.25149,45.79946 -29.20703,62.88281 -18.71886,20.04208 -42.70545,32.16966 -69.88086,35.33203 v 0.002 c -4.08068,0.47467 -14.42238,0.84673 -17.59961,0.63281 -9.74033,-0.65594 -14.75187,-1.38104 -21.97851,-3.17578 -27.43677,-6.814 -51.20109,-23.63873 -66.77149,-47.27344 -6.48975,-9.851 -10.99056,-19.55697 -14.13085,-30.47852 -9.22404,-32.08002 -3.99974,-66.18082 14.33984,-93.5996 18.72896,-28.00086 48.05718,-45.79625 81.82031,-49.64649 2.31262,-0.26417 7.11311,-0.39935 11.875,-0.40234 z m -0.18555,23.21289 c -4.818,0.0375 -10.09895,0.35613 -13.60937,0.89062 -18.9609,2.88696 -36.13092,11.55645 -49.79102,25.13867 -9.68611,9.63088 -16.31842,19.88303 -21.03711,32.51954 -7.34143,19.66015 -7.36044,42.29519 -0.0527,62.25 2.81741,7.69334 8.91159,18.49301 14.0625,24.91601 14.90583,18.58711 36.00539,30.24477 60.17773,33.25195 5.58917,0.69536 18.08308,0.4708 23.67969,-0.42578 19.88735,-3.18576 37.51362,-12.36889 51.24805,-26.70312 31.09024,-32.448 33.42325,-82.6794 5.48437,-118.05664 -3.29,-4.16591 -10.7239,-11.58481 -14.65234,-14.6211 -14.07065,-10.87506 -30.19989,-17.25351 -47.82031,-18.91015 -2.07458,-0.19507 -4.79866,-0.27252 -7.68946,-0.25 z m 50.62305,49.29883 c 1.76392,-0.0207 3.52322,1.59564 10.22852,8.33398 7.98878,8.02806 8.46983,8.71408 7.78906,11.08789 -0.22643,0.78958 -9.54259,10.3283 -37.47852,38.38086 -21.10514,21.19325 -37.73358,37.64398 -38.46484,38.05273 -0.70847,0.39606 -1.66089,0.71459 -2.11719,0.70704 -2.38393,-0.036 -1.80393,0.50883 -32.72461,-30.77735 -17.82109,-18.03171 -19.21483,-19.52162 -19.37304,-20.70117 -0.0938,-0.69902 -0.0712,-1.6753 0.0508,-2.16992 0.14547,-0.58976 2.88468,-3.57317 7.95898,-8.66797 6.33959,-6.36525 7.96399,-7.82994 8.98633,-8.10547 2.50912,-0.67601 2.62455,-0.57932 19.23047,16.03125 8.44729,8.44966 15.57446,15.36328 15.83789,15.36328 0.26336,0 13.29563,-12.805 28.96094,-28.45508 24.87318,-24.84895 28.65357,-28.50447 29.83203,-28.84765 0.46842,-0.13635 0.87614,-0.22765 1.2832,-0.23242 z"
         style="opacity:1;fill:#6c286b;fill-opacity:1;fill-rule:nonzero;stroke:none;stroke-width:3;stroke-miterlimit:4;stroke-dasharray:none;stroke-dashoffset:0;stroke-opacity:1;paint-order:markers fill stroke"
         inkscape:connector-curvature="0" />
      <g
         id="text4772"
         style="font-style:normal;font-variant:normal;font-weight:normal;font-stretch:normal;font-size:14.11111069px;line-height:100%;font-family:'Courier New';-inkscape-font-specification:'Courier New';text-align:start;letter-spacing:0px;word-spacing:0px;text-anchor:start;fill:#6c286b;fill-opacity:1;stroke:none;stroke-width:0.26458332px;stroke-linecap:butt;stroke-linejoin:miter;stroke-opacity:1"
         aria-label="safenet-root.pem">
        <path
           id="path4774"
           style="font-style:normal;font-variant:normal;font-weight:bold;font-stretch:normal;font-family:sans-serif;-inkscape-font-specification:'sans-serif Bold';stroke-width:0.26458332px;fill:#6c286b;fill-opacity:1"
           d="m 45.83045,238.22864 q 0,1.19889 -1.074869,1.93614 -1.07487,0.73036 -2.942112,0.73036 -1.033528,0 -1.874132,-0.19292 -0.840603,-0.19293 -1.350477,-0.42719 v -2.0395 h 0.227376 q 0.186035,0.13091 0.427192,0.28939 0.248047,0.15158 0.695909,0.33073 0.385851,0.15847 0.875055,0.27561 0.489203,0.11024 1.047309,0.11024 0.73036,0 1.08176,-0.15848 0.351399,-0.16536 0.351399,-0.48231 0,-0.2825 -0.206705,-0.40652 -0.206706,-0.13091 -0.785482,-0.24805 -0.275608,-0.062 -0.751031,-0.13091 -0.468533,-0.0758 -0.854384,-0.17915 -1.054199,-0.2756 -1.564073,-0.85438 -0.509874,-0.58567 -0.509874,-1.45383 0,-1.11621 1.054199,-1.85346 1.061089,-0.74414 2.89388,-0.74414 0.868164,0 1.660536,0.17914 0.799262,0.17226 1.247125,0.37207 v 1.95682 h -0.213596 q -0.551215,-0.37896 -1.260905,-0.61323 -0.7028,-0.24116 -1.42627,-0.24116 -0.599446,0 -1.012858,0.16537 -0.406521,0.16536 -0.406521,0.46853 0,0.27561 0.186035,0.4203 0.186035,0.1447 0.875054,0.28939 0.378961,0.0758 0.813043,0.15159 0.440972,0.0689 0.881944,0.17914 0.978408,0.25494 1.44694,0.80615 0.468533,0.54433 0.468533,1.36426 z"
           inkscape:connector-curvature="0" />
        <path
           id="path4776"
           style="font-style:normal;font-variant:normal;font-weight:bold;font-stretch:normal;font-family:sans-serif;-inkscape-font-specification:'sans-serif Bold';stroke-width:0.26458332px;fill:#6c286b;fill-opacity:1"
           d="m 52.169426,238.66272 v -1.6123 q -0.502984,0.0413 -1.08865,0.11713 -0.585666,0.0689 -0.888834,0.16537 -0.372071,0.11713 -0.571886,0.34451 -0.192926,0.22048 -0.192926,0.58566 0,0.24116 0.04134,0.39274 0.04134,0.15159 0.206705,0.28939 0.158475,0.1378 0.378961,0.20671 0.220486,0.062 0.689019,0.062 0.37207,0 0.751031,-0.15159 0.38585,-0.15158 0.675238,-0.39963 z m 0,1.1989 q -0.199815,0.15158 -0.496093,0.36518 -0.296279,0.21359 -0.558106,0.33762 -0.36518,0.16536 -0.757921,0.24115 -0.392741,0.0827 -0.861274,0.0827 -1.10243,0 -1.846571,-0.68212 -0.74414,-0.68213 -0.74414,-1.74322 0,-0.8475 0.37896,-1.38493 0.378961,-0.53744 1.07487,-0.84749 0.689019,-0.31006 1.708767,-0.44098 1.019748,-0.13091 2.115289,-0.19292 v -0.0413 q 0,-0.64079 -0.523655,-0.88195 -0.523654,-0.24804 -1.543403,-0.24804 -0.613227,0 -1.309136,0.22048 -0.695909,0.2136 -0.999077,0.33073 h -0.227377 v -1.86724 q 0.392741,-0.10335 1.274686,-0.24116 0.888834,-0.14469 1.777669,-0.14469 2.115288,0 3.052354,0.65457 0.943956,0.64767 0.943956,2.03949 v 5.26411 h -2.459798 z"
           inkscape:connector-curvature="0" />
        <path
           id="path4778"
           style="font-style:normal;font-variant:normal;font-weight:bold;font-stretch:normal;font-family:sans-serif;-inkscape-font-specification:'sans-serif Bold';stroke-width:0.26458332px;fill:#6c286b;fill-opacity:1"
           d="m 61.925936,231.77942 h -0.186035 q -0.165365,-0.0482 -0.434082,-0.11024 -0.261828,-0.062 -0.564996,-0.062 -0.73036,0 -0.992188,0.26183 -0.254937,0.26182 -0.254937,1.01285 v 0.062 h 1.915473 v 1.68121 h -1.83279 v 6.05648 h -2.480469 v -6.05648 h -1.061089 v -1.68121 h 1.061089 v -0.21359 q 0,-1.41938 0.751031,-2.12907 0.757921,-0.70969 2.287543,-0.70969 0.551215,0 0.999078,0.0413 0.447862,0.0344 0.792372,0.0965 z"
           inkscape:connector-curvature="0" />
        <path
           id="path4780"
           style="font-style:normal;font-variant:normal;font-weight:bold;font-stretch:normal;font-family:sans-serif;-inkscape-font-specification:'sans-serif Bold';stroke-width:0.26458332px;fill:#6c286b;fill-opacity:1"
           d="m 70.483553,237.2709 h -5.677517 q 0.05512,0.90951 0.689019,1.39182 0.640788,0.48232 1.881022,0.48232 0.785482,0 1.522732,-0.2825 0.73725,-0.2825 1.164442,-0.60634 h 0.275608 v 1.99127 q -0.840603,0.33762 -1.584744,0.4892 -0.744141,0.15158 -1.646756,0.15158 -2.328884,0 -3.569118,-1.0473 -1.240235,-1.04731 -1.240235,-2.98346 0,-1.91547 1.171333,-3.03168 1.178222,-1.1231 3.224609,-1.1231 1.887912,0 2.838759,0.95773 0.950846,0.95085 0.950846,2.7423 z m -2.466688,-1.45383 q -0.02067,-0.77859 -0.385851,-1.17133 -0.36518,-0.39274 -1.136882,-0.39274 -0.716579,0 -1.178222,0.37207 -0.461643,0.37207 -0.516765,1.192 z"
           inkscape:connector-curvature="0" />
        <path
           id="path4782"
           style="font-style:normal;font-variant:normal;font-weight:bold;font-stretch:normal;font-family:sans-serif;-inkscape-font-specification:'sans-serif Bold';stroke-width:0.26458332px;fill:#6c286b;fill-opacity:1"
           d="m 80.005796,240.68155 h -2.494249 v -3.83784 q 0,-0.46853 -0.04823,-0.93017 -0.04823,-0.46854 -0.165365,-0.68902 -0.137804,-0.25494 -0.406521,-0.37207 -0.261828,-0.11714 -0.737251,-0.11714 -0.337619,0 -0.689019,0.11025 -0.344509,0.11024 -0.751031,0.3514 v 5.48459 h -2.480468 v -7.73769 h 2.480468 v 0.85439 q 0.661459,-0.51677 1.267796,-0.79237 0.613227,-0.27561 1.357367,-0.27561 1.254015,0 1.956814,0.73036 0.70969,0.73036 0.70969,2.18419 z"
           inkscape:connector-curvature="0" />
        <path
           id="path4784"
           style="font-style:normal;font-variant:normal;font-weight:bold;font-stretch:normal;font-family:sans-serif;-inkscape-font-specification:'sans-serif Bold';stroke-width:0.26458332px;fill:#6c286b;fill-opacity:1"
           d="m 89.913893,237.2709 h -5.677517 q 0.05512,0.90951 0.689019,1.39182 0.640787,0.48232 1.881022,0.48232 0.785481,0 1.522732,-0.2825 0.73725,-0.2825 1.164442,-0.60634 h 0.275608 v 1.99127 q -0.840604,0.33762 -1.584744,0.4892 -0.744141,0.15158 -1.646756,0.15158 -2.328884,0 -3.569119,-1.0473 -1.240234,-1.04731 -1.240234,-2.98346 0,-1.91547 1.171332,-3.03168 1.178223,-1.1231 3.22461,-1.1231 1.887912,0 2.838758,0.95773 0.950847,0.95085 0.950847,2.7423 z m -2.466689,-1.45383 q -0.02067,-0.77859 -0.38585,-1.17133 -0.36518,-0.39274 -1.136882,-0.39274 -0.71658,0 -1.178222,0.37207 -0.461643,0.37207 -0.516765,1.192 z"
           inkscape:connector-curvature="0" />
        <path
           id="path4786"
           style="font-style:normal;font-variant:normal;font-weight:bold;font-stretch:normal;font-family:sans-serif;-inkscape-font-specification:'sans-serif Bold';stroke-width:0.26458332px;fill:#6c286b;fill-opacity:1"
           d="m 96.611158,240.61265 q -0.399632,0.10335 -0.847494,0.15847 -0.447862,0.062 -1.09554,0.062 -1.44694,0 -2.15663,-0.58566 -0.702799,-0.58567 -0.702799,-2.00505 v -3.61735 h -1.019749 v -1.68121 h 1.019749 v -2.21175 h 2.480468 v 2.21175 h 2.321995 v 1.68121 h -2.321995 v 2.7423 q 0,0.40652 0.0069,0.70969 0.0069,0.30317 0.110244,0.54432 0.09646,0.24116 0.337619,0.38585 0.248047,0.13781 0.71658,0.13781 0.192925,0 0.502984,-0.0827 0.316948,-0.0827 0.440972,-0.15158 h 0.206706 z"
           inkscape:connector-curvature="0" />
        <path
           id="path4788"
           style="font-style:normal;font-variant:normal;font-weight:bold;font-stretch:normal;font-family:sans-serif;-inkscape-font-specification:'sans-serif Bold';stroke-width:0.26458332px;fill:#6c286b;fill-opacity:1"
           d="m 102.92946,237.11243 h -5.257213 v -1.98437 h 5.257213 z"
           inkscape:connector-curvature="0" />
        <path
           id="path4790"
           style="font-style:normal;font-variant:normal;font-weight:bold;font-stretch:normal;font-family:sans-serif;-inkscape-font-specification:'sans-serif Bold';stroke-width:0.26458332px;fill:#6c286b;fill-opacity:1"
           d="m 110.47422,235.3072 h -0.22049 q -0.15847,-0.0551 -0.50987,-0.0827 -0.3514,-0.0276 -0.58567,-0.0276 -0.53054,0 -0.93706,0.0689 -0.40652,0.0689 -0.87506,0.23427 v 5.18142 h -2.48047 v -7.73769 h 2.48047 v 1.13689 q 0.81993,-0.7028 1.42627,-0.93018 0.60634,-0.23427 1.11621,-0.23427 0.13092,0 0.29628,0.007 0.16537,0.007 0.28939,0.0207 z"
           inkscape:connector-curvature="0" />
        <path
           id="path4792"
           style="font-style:normal;font-variant:normal;font-weight:bold;font-stretch:normal;font-family:sans-serif;-inkscape-font-specification:'sans-serif Bold';stroke-width:0.26458332px;fill:#6c286b;fill-opacity:1"
           d="m 119.80354,236.81615 q 0,1.90858 -1.11621,3.01102 -1.10932,1.09554 -3.12125,1.09554 -2.01194,0 -3.12815,-1.09554 -1.10932,-1.10244 -1.10932,-3.01102 0,-1.92236 1.11621,-3.0179 1.1231,-1.09554 3.12126,-1.09554 2.02571,0 3.12814,1.10243 1.10932,1.10243 1.10932,3.01101 z m -3.05235,1.88102 q 0.24115,-0.29627 0.35829,-0.70969 0.12402,-0.4203 0.12402,-1.15755 0,-0.68213 -0.12402,-1.14377 -0.12403,-0.46164 -0.34451,-0.73725 -0.22049,-0.2825 -0.53055,-0.39963 -0.31006,-0.11713 -0.66834,-0.11713 -0.35829,0 -0.64079,0.0965 -0.27561,0.0965 -0.53055,0.38585 -0.22737,0.26872 -0.36518,0.73725 -0.13091,0.46853 -0.13091,1.17822 0,0.6339 0.11713,1.10243 0.11714,0.46165 0.34451,0.74414 0.22049,0.26872 0.52366,0.39274 0.31005,0.12403 0.7028,0.12403 0.33761,0 0.64078,-0.11025 0.31006,-0.11713 0.52366,-0.38585 z"
           inkscape:connector-curvature="0" />
        <path
           id="path4794"
           style="font-style:normal;font-variant:normal;font-weight:bold;font-stretch:normal;font-family:sans-serif;-inkscape-font-specification:'sans-serif Bold';stroke-width:0.26458332px;fill:#6c286b;fill-opacity:1"
           d="m 129.50493,236.81615 q 0,1.90858 -1.11621,3.01102 -1.10932,1.09554 -3.12126,1.09554 -2.01194,0 -3.12815,-1.09554 -1.10932,-1.10244 -1.10932,-3.01102 0,-1.92236 1.11621,-3.0179 1.12311,-1.09554 3.12126,-1.09554 2.02572,0 3.12815,1.10243 1.10932,1.10243 1.10932,3.01101 z m -3.05236,1.88102 q 0.24116,-0.29627 0.35829,-0.70969 0.12403,-0.4203 0.12403,-1.15755 0,-0.68213 -0.12403,-1.14377 -0.12402,-0.46164 -0.34451,-0.73725 -0.22048,-0.2825 -0.53054,-0.39963 -0.31006,-0.11713 -0.66835,-0.11713 -0.35829,0 -0.64079,0.0965 -0.2756,0.0965 -0.53054,0.38585 -0.22738,0.26872 -0.36518,0.73725 -0.13092,0.46853 -0.13092,1.17822 0,0.6339 0.11714,1.10243 0.11713,0.46165 0.34451,0.74414 0.22048,0.26872 0.52365,0.39274 0.31006,0.12403 0.7028,0.12403 0.33762,0 0.64079,-0.11025 0.31006,-0.11713 0.52365,-0.38585 z"
           inkscape:connector-curvature="0" />
        <path
           id="path4796"
           style="font-style:normal;font-variant:normal;font-weight:bold;font-stretch:normal;font-family:sans-serif;-inkscape-font-specification:'sans-serif Bold';stroke-width:0.26458332px;fill:#6c286b;fill-opacity:1"
           d="m 136.24353,240.61265 q -0.39963,0.10335 -0.84749,0.15847 -0.44786,0.062 -1.09554,0.062 -1.44694,0 -2.15663,-0.58566 -0.7028,-0.58567 -0.7028,-2.00505 v -3.61735 h -1.01975 v -1.68121 h 1.01975 v -2.21175 h 2.48047 v 2.21175 h 2.32199 v 1.68121 h -2.32199 v 2.7423 q 0,0.40652 0.007,0.70969 0.007,0.30317 0.11024,0.54432 0.0965,0.24116 0.33762,0.38585 0.24805,0.13781 0.71658,0.13781 0.19292,0 0.50298,-0.0827 0.31695,-0.0827 0.44098,-0.15158 h 0.2067 z"
           inkscape:connector-curvature="0" />
        <path
           id="path4798"
           style="font-style:normal;font-variant:normal;font-weight:bold;font-stretch:normal;font-family:sans-serif;-inkscape-font-specification:'sans-serif Bold';stroke-width:0.26458332px;fill:#6c286b;fill-opacity:1"
           d="m 140.38454,240.68155 h -2.57693 v -2.70785 h 2.57693 z"
           inkscape:connector-curvature="0" />
        <path
           id="path4800"
           style="font-style:normal;font-variant:normal;font-weight:bold;font-stretch:normal;font-family:sans-serif;-inkscape-font-specification:'sans-serif Bold';stroke-width:0.26458332px;fill:#6c286b;fill-opacity:1"
           d="m 150.89208,236.70591 q 0,0.95774 -0.29628,1.74322 -0.28939,0.78548 -0.76481,1.29535 -0.49609,0.53744 -1.1231,0.81305 -0.62701,0.2756 -1.34359,0.2756 -0.66146,0 -1.1231,-0.14469 -0.46164,-0.1378 -0.94396,-0.39274 v 3.22461 h -2.48046 v -10.57645 h 2.48046 v 0.80616 q 0.57189,-0.45476 1.16445,-0.73725 0.59944,-0.2825 1.37803,-0.2825 1.44694,0 2.24621,1.06109 0.80615,1.06109 0.80615,2.91455 z m -2.55626,0.0482 q 0,-1.12999 -0.38585,-1.63987 -0.38585,-0.50987 -1.21957,-0.50987 -0.3514,0 -0.72347,0.11024 -0.37207,0.10336 -0.70969,0.30317 v 3.89296 q 0.24805,0.0965 0.53055,0.12402 0.2825,0.0276 0.5581,0.0276 0.9853,0 1.46761,-0.57188 0.48232,-0.57878 0.48232,-1.73633 z"
           inkscape:connector-curvature="0" />
        <path
           id="path4802"
           style="font-style:normal;font-variant:normal;font-weight:bold;font-stretch:normal;font-family:sans-serif;-inkscape-font-specification:'sans-serif Bold';stroke-width:0.26458332px;fill:#6c286b;fill-opacity:1"
           d="m 160.30408,237.2709 h -5.67752 q 0.0551,0.90951 0.68902,1.39182 0.64079,0.48232 1.88102,0.48232 0.78548,0 1.52274,-0.2825 0.73725,-0.2825 1.16444,-0.60634 h 0.2756 v 1.99127 q -0.8406,0.33762 -1.58474,0.4892 -0.74414,0.15158 -1.64675,0.15158 -2.32889,0 -3.56912,-1.0473 -1.24024,-1.04731 -1.24024,-2.98346 0,-1.91547 1.17133,-3.03168 1.17823,-1.1231 3.22461,-1.1231 1.88792,0 2.83876,0.95773 0.95085,0.95085 0.95085,2.7423 z m -2.46669,-1.45383 q -0.0207,-0.77859 -0.38585,-1.17133 -0.36518,-0.39274 -1.13688,-0.39274 -0.71658,0 -1.17822,0.37207 -0.46165,0.37207 -0.51677,1.192 z"
           inkscape:connector-curvature="0" />
        <path
           id="path4804"
           style="font-style:normal;font-variant:normal;font-weight:bold;font-stretch:normal;font-family:sans-serif;-inkscape-font-specification:'sans-serif Bold';stroke-width:0.26458332px;fill:#6c286b;fill-opacity:1"
           d="m 169.61962,235.19696 v 5.48459 h -2.49425 v -3.8654 q 0,-0.56499 -0.0276,-0.95773 -0.0276,-0.39964 -0.15159,-0.64768 -0.12402,-0.24805 -0.37896,-0.35829 -0.24805,-0.11714 -0.7028,-0.11714 -0.36518,0 -0.70969,0.15159 -0.34451,0.14469 -0.62011,0.31006 v 5.48459 h -2.48047 v -7.73769 h 2.48047 v 0.85439 q 0.64078,-0.50299 1.22645,-0.78548 0.58567,-0.2825 1.29536,-0.2825 0.76481,0 1.35047,0.34451 0.58567,0.33762 0.9164,0.99908 0.74414,-0.62701 1.44694,-0.9853 0.7028,-0.35829 1.37804,-0.35829 1.25401,0 1.90169,0.75103 0.65457,0.75103 0.65457,2.16352 v 5.03673 h -2.49425 v -3.8654 q 0,-0.57188 -0.0276,-0.96462 -0.0207,-0.39275 -0.1447,-0.64079 -0.11713,-0.24805 -0.37207,-0.35829 -0.25493,-0.11714 -0.71658,-0.11714 -0.31006,0 -0.60633,0.11025 -0.29628,0.10335 -0.72347,0.3514 z"
           inkscape:connector-curvature="0" />
      </g>
    </g>
  </g>
</svg>
